<?xml version="1.0" encoding="utf-8" standalone="no"?>
<!DOCTYPE svg PUBLIC "-//W3C//DTD SVG 1.1//EN"
  "http://www.w3.org/Graphics/SVG/1.1/DTD/svg11.dtd">
<svg xmlns:xlink="http://www.w3.org/1999/xlink" width="391.245pt" height="314.667469pt" viewBox="0 0 391.245 314.667469" xmlns="http://www.w3.org/2000/svg" version="1.1">
 <metadata>
  <rdf:RDF xmlns:dc="http://purl.org/dc/elements/1.1/" xmlns:cc="http://creativecommons.org/ns#" xmlns:rdf="http://www.w3.org/1999/02/22-rdf-syntax-ns#">
   <cc:Work>
    <dc:type rdf:resource="http://purl.org/dc/dcmitype/StillImage"/>
    <dc:date>2025-02-07T08:42:40.484008</dc:date>
    <dc:format>image/svg+xml</dc:format>
    <dc:creator>
     <cc:Agent>
      <dc:title>Matplotlib v3.5.3, https://matplotlib.org/</dc:title>
     </cc:Agent>
    </dc:creator>
   </cc:Work>
  </rdf:RDF>
 </metadata>
 <defs>
  <style type="text/css">*{stroke-linejoin: round; stroke-linecap: butt}</style>
 </defs>
 <g id="figure_1">
  <g id="patch_1">
   <path d="M 0 314.667469 
L 391.245 314.667469 
L 391.245 0 
L 0 0 
z
" style="fill: #ffffff"/>
  </g>
  <g id="axes_1">
   <g id="patch_2">
    <path d="M 26.925 277.111219 
L 384.045 277.111219 
L 384.045 10.999219 
L 26.925 10.999219 
z
" style="fill: #ffffff"/>
   </g>
   <g id="PolyCollection_1">
    <path d="M 261.046684 10.999219 
L 261.046684 277.111219 
L 263.225574 277.111219 
L 265.404463 277.111219 
L 267.583353 277.111219 
L 269.762242 277.111219 
L 271.941132 277.111219 
L 274.120021 277.111219 
L 276.298911 277.111219 
L 278.4778 277.111219 
L 280.65669 277.111219 
L 282.83558 277.111219 
L 285.014469 277.111219 
L 287.193359 277.111219 
L 289.372248 277.111219 
L 291.551138 277.111219 
L 291.551138 10.999219 
L 291.551138 10.999219 
L 289.372248 10.999219 
L 287.193359 10.999219 
L 285.014469 10.999219 
L 282.83558 10.999219 
L 280.65669 10.999219 
L 278.4778 10.999219 
L 276.298911 10.999219 
L 274.120021 10.999219 
L 271.941132 10.999219 
L 269.762242 10.999219 
L 267.583353 10.999219 
L 265.404463 10.999219 
L 263.225574 10.999219 
L 261.046684 10.999219 
z
" clip-path="url(#pf5593a2d36)" style="fill: #800080; fill-opacity: 0.2"/>
   </g>
   <g id="PolyCollection_2">
    <path d="M 43.157727 10.999219 
L 43.157727 277.111219 
L 45.336617 277.111219 
L 47.515506 277.111219 
L 49.694396 277.111219 
L 51.873286 277.111219 
L 54.052175 277.111219 
L 56.231065 277.111219 
L 58.409954 277.111219 
L 60.588844 277.111219 
L 62.767733 277.111219 
L 64.946623 277.111219 
L 67.125513 277.111219 
L 69.304402 277.111219 
L 71.483292 277.111219 
L 73.662181 277.111219 
L 75.841071 277.111219 
L 78.01996 277.111219 
L 80.19885 277.111219 
L 82.377739 277.111219 
L 84.556629 277.111219 
L 86.735519 277.111219 
L 88.914408 277.111219 
L 91.093298 277.111219 
L 93.272187 277.111219 
L 95.451077 277.111219 
L 97.629966 277.111219 
L 99.808856 277.111219 
L 101.987746 277.111219 
L 104.166635 277.111219 
L 106.345525 277.111219 
L 108.524414 277.111219 
L 110.703304 277.111219 
L 112.882193 277.111219 
L 115.061083 277.111219 
L 117.239973 277.111219 
L 119.418862 277.111219 
L 121.597752 277.111219 
L 123.776641 277.111219 
L 125.955531 277.111219 
L 128.13442 277.111219 
L 130.31331 277.111219 
L 132.4922 277.111219 
L 134.671089 277.111219 
L 136.849979 277.111219 
L 139.028868 277.111219 
L 141.207758 277.111219 
L 143.386647 277.111219 
L 145.565537 277.111219 
L 147.744426 277.111219 
L 149.923316 277.111219 
L 152.102206 277.111219 
L 154.281095 277.111219 
L 156.459985 277.111219 
L 158.638874 277.111219 
L 160.817764 277.111219 
L 162.996653 277.111219 
L 165.175543 277.111219 
L 167.354433 277.111219 
L 169.533322 277.111219 
L 171.712212 277.111219 
L 173.891101 277.111219 
L 176.069991 277.111219 
L 178.24888 277.111219 
L 180.42777 277.111219 
L 182.60666 277.111219 
L 184.785549 277.111219 
L 186.964439 277.111219 
L 189.143328 277.111219 
L 191.322218 277.111219 
L 193.501107 277.111219 
L 195.679997 277.111219 
L 197.858887 277.111219 
L 200.037776 277.111219 
L 202.216666 277.111219 
L 204.395555 277.111219 
L 206.574445 277.111219 
L 208.753334 277.111219 
L 210.932224 277.111219 
L 213.111113 277.111219 
L 215.290003 277.111219 
L 215.290003 10.999219 
L 215.290003 10.999219 
L 213.111113 10.999219 
L 210.932224 10.999219 
L 208.753334 10.999219 
L 206.574445 10.999219 
L 204.395555 10.999219 
L 202.216666 10.999219 
L 200.037776 10.999219 
L 197.858887 10.999219 
L 195.679997 10.999219 
L 193.501107 10.999219 
L 191.322218 10.999219 
L 189.143328 10.999219 
L 186.964439 10.999219 
L 184.785549 10.999219 
L 182.60666 10.999219 
L 180.42777 10.999219 
L 178.24888 10.999219 
L 176.069991 10.999219 
L 173.891101 10.999219 
L 171.712212 10.999219 
L 169.533322 10.999219 
L 167.354433 10.999219 
L 165.175543 10.999219 
L 162.996653 10.999219 
L 160.817764 10.999219 
L 158.638874 10.999219 
L 156.459985 10.999219 
L 154.281095 10.999219 
L 152.102206 10.999219 
L 149.923316 10.999219 
L 147.744426 10.999219 
L 145.565537 10.999219 
L 143.386647 10.999219 
L 141.207758 10.999219 
L 139.028868 10.999219 
L 136.849979 10.999219 
L 134.671089 10.999219 
L 132.4922 10.999219 
L 130.31331 10.999219 
L 128.13442 10.999219 
L 125.955531 10.999219 
L 123.776641 10.999219 
L 121.597752 10.999219 
L 119.418862 10.999219 
L 117.239973 10.999219 
L 115.061083 10.999219 
L 112.882193 10.999219 
L 110.703304 10.999219 
L 108.524414 10.999219 
L 106.345525 10.999219 
L 104.166635 10.999219 
L 101.987746 10.999219 
L 99.808856 10.999219 
L 97.629966 10.999219 
L 95.451077 10.999219 
L 93.272187 10.999219 
L 91.093298 10.999219 
L 88.914408 10.999219 
L 86.735519 10.999219 
L 84.556629 10.999219 
L 82.377739 10.999219 
L 80.19885 10.999219 
L 78.01996 10.999219 
L 75.841071 10.999219 
L 73.662181 10.999219 
L 71.483292 10.999219 
L 69.304402 10.999219 
L 67.125513 10.999219 
L 64.946623 10.999219 
L 62.767733 10.999219 
L 60.588844 10.999219 
L 58.409954 10.999219 
L 56.231065 10.999219 
L 54.052175 10.999219 
L 51.873286 10.999219 
L 49.694396 10.999219 
L 47.515506 10.999219 
L 45.336617 10.999219 
L 43.157727 10.999219 
z
" clip-path="url(#pf5593a2d36)" style="fill: #ffa500; fill-opacity: 0.2"/>
   </g>
   <g id="PolyCollection_3">
    <path d="M 261.046684 -3467.737321 
L 261.046684 260.176819 
L 263.225574 260.176819 
L 265.404463 260.176819 
L 267.583353 260.176819 
L 269.762242 260.176819 
L 271.941132 260.176819 
L 274.120021 260.176819 
L 276.298911 260.176819 
L 278.4778 260.176819 
L 280.65669 260.176819 
L 282.83558 260.176819 
L 285.014469 260.176819 
L 287.193359 260.176819 
L 289.372248 260.176819 
L 291.551138 260.176819 
L 291.551138 -3467.737321 
L 291.551138 -3467.737321 
L 289.372248 -3467.737321 
L 287.193359 -3467.737321 
L 285.014469 -3467.737321 
L 282.83558 -3467.737321 
L 280.65669 -3467.737321 
L 278.4778 -3467.737321 
L 276.298911 -3467.737321 
L 274.120021 -3467.737321 
L 271.941132 -3467.737321 
L 269.762242 -3467.737321 
L 267.583353 -3467.737321 
L 265.404463 -3467.737321 
L 263.225574 -3467.737321 
L 261.046684 -3467.737321 
z
" clip-path="url(#pf5593a2d36)" style="fill: #008000; fill-opacity: 0.3"/>
   </g>
   <g id="PolyCollection_4">
    <path d="M 217.468893 -3467.737321 
L 217.468893 260.176819 
L 219.647782 260.176819 
L 221.826672 260.176819 
L 224.005561 260.176819 
L 226.184451 260.176819 
L 228.36334 260.176819 
L 230.54223 260.176819 
L 232.72112 260.176819 
L 234.900009 260.176819 
L 237.078899 260.176819 
L 239.257788 260.176819 
L 241.436678 260.176819 
L 243.615567 260.176819 
L 245.794457 260.176819 
L 247.973347 260.176819 
L 247.973347 -3467.737321 
L 247.973347 -3467.737321 
L 245.794457 -3467.737321 
L 243.615567 -3467.737321 
L 241.436678 -3467.737321 
L 239.257788 -3467.737321 
L 237.078899 -3467.737321 
L 234.900009 -3467.737321 
L 232.72112 -3467.737321 
L 230.54223 -3467.737321 
L 228.36334 -3467.737321 
L 226.184451 -3467.737321 
L 224.005561 -3467.737321 
L 221.826672 -3467.737321 
L 219.647782 -3467.737321 
L 217.468893 -3467.737321 
z
" clip-path="url(#pf5593a2d36)" style="fill: #ff0000; fill-opacity: 0.3"/>
   </g>
   <g id="matplotlib.axis_1">
    <g id="xtick_1">
     <g id="line2d_1">
      <path d="M 43.157727 277.111219 
L 43.157727 10.999219 
" clip-path="url(#pf5593a2d36)" style="fill: none; stroke: #b0b0b0; stroke-width: 0.8; stroke-linecap: square"/>
     </g>
     <g id="line2d_2">
      <defs>
       <path id="m07ecf95c12" d="M 0 0 
L 0 3.5 
" style="stroke: #000000; stroke-width: 0.8"/>
      </defs>
      <g>
       <use xlink:href="#m07ecf95c12" x="43.157727" y="277.111219" style="stroke: #000000; stroke-width: 0.8"/>
      </g>
     </g>
     <g id="text_1">
      <!-- 0.0 -->
      <g transform="translate(35.206165 291.709656)scale(0.1 -0.1)">
       <defs>
        <path id="DejaVuSans-30" d="M 2034 4250 
Q 1547 4250 1301 3770 
Q 1056 3291 1056 2328 
Q 1056 1369 1301 889 
Q 1547 409 2034 409 
Q 2525 409 2770 889 
Q 3016 1369 3016 2328 
Q 3016 3291 2770 3770 
Q 2525 4250 2034 4250 
z
M 2034 4750 
Q 2819 4750 3233 4129 
Q 3647 3509 3647 2328 
Q 3647 1150 3233 529 
Q 2819 -91 2034 -91 
Q 1250 -91 836 529 
Q 422 1150 422 2328 
Q 422 3509 836 4129 
Q 1250 4750 2034 4750 
z
" transform="scale(0.015625)"/>
        <path id="DejaVuSans-2e" d="M 684 794 
L 1344 794 
L 1344 0 
L 684 0 
L 684 794 
z
" transform="scale(0.015625)"/>
       </defs>
       <use xlink:href="#DejaVuSans-30"/>
       <use xlink:href="#DejaVuSans-2e" x="63.623047"/>
       <use xlink:href="#DejaVuSans-30" x="95.410156"/>
      </g>
     </g>
    </g>
    <g id="xtick_2">
     <g id="line2d_3">
      <path d="M 97.266818 277.111219 
L 97.266818 10.999219 
" clip-path="url(#pf5593a2d36)" style="fill: none; stroke: #b0b0b0; stroke-width: 0.8; stroke-linecap: square"/>
     </g>
     <g id="line2d_4">
      <g>
       <use xlink:href="#m07ecf95c12" x="97.266818" y="277.111219" style="stroke: #000000; stroke-width: 0.8"/>
      </g>
     </g>
     <g id="text_2">
      <!-- 0.5 -->
      <g transform="translate(89.315256 291.709656)scale(0.1 -0.1)">
       <defs>
        <path id="DejaVuSans-35" d="M 691 4666 
L 3169 4666 
L 3169 4134 
L 1269 4134 
L 1269 2991 
Q 1406 3038 1543 3061 
Q 1681 3084 1819 3084 
Q 2600 3084 3056 2656 
Q 3513 2228 3513 1497 
Q 3513 744 3044 326 
Q 2575 -91 1722 -91 
Q 1428 -91 1123 -41 
Q 819 9 494 109 
L 494 744 
Q 775 591 1075 516 
Q 1375 441 1709 441 
Q 2250 441 2565 725 
Q 2881 1009 2881 1497 
Q 2881 1984 2565 2268 
Q 2250 2553 1709 2553 
Q 1456 2553 1204 2497 
Q 953 2441 691 2322 
L 691 4666 
z
" transform="scale(0.015625)"/>
       </defs>
       <use xlink:href="#DejaVuSans-30"/>
       <use xlink:href="#DejaVuSans-2e" x="63.623047"/>
       <use xlink:href="#DejaVuSans-35" x="95.410156"/>
      </g>
     </g>
    </g>
    <g id="xtick_3">
     <g id="line2d_5">
      <path d="M 151.375909 277.111219 
L 151.375909 10.999219 
" clip-path="url(#pf5593a2d36)" style="fill: none; stroke: #b0b0b0; stroke-width: 0.8; stroke-linecap: square"/>
     </g>
     <g id="line2d_6">
      <g>
       <use xlink:href="#m07ecf95c12" x="151.375909" y="277.111219" style="stroke: #000000; stroke-width: 0.8"/>
      </g>
     </g>
     <g id="text_3">
      <!-- 1.0 -->
      <g transform="translate(143.424347 291.709656)scale(0.1 -0.1)">
       <defs>
        <path id="DejaVuSans-31" d="M 794 531 
L 1825 531 
L 1825 4091 
L 703 3866 
L 703 4441 
L 1819 4666 
L 2450 4666 
L 2450 531 
L 3481 531 
L 3481 0 
L 794 0 
L 794 531 
z
" transform="scale(0.015625)"/>
       </defs>
       <use xlink:href="#DejaVuSans-31"/>
       <use xlink:href="#DejaVuSans-2e" x="63.623047"/>
       <use xlink:href="#DejaVuSans-30" x="95.410156"/>
      </g>
     </g>
    </g>
    <g id="xtick_4">
     <g id="line2d_7">
      <path d="M 205.485 277.111219 
L 205.485 10.999219 
" clip-path="url(#pf5593a2d36)" style="fill: none; stroke: #b0b0b0; stroke-width: 0.8; stroke-linecap: square"/>
     </g>
     <g id="line2d_8">
      <g>
       <use xlink:href="#m07ecf95c12" x="205.485" y="277.111219" style="stroke: #000000; stroke-width: 0.8"/>
      </g>
     </g>
     <g id="text_4">
      <!-- 1.5 -->
      <g transform="translate(197.533437 291.709656)scale(0.1 -0.1)">
       <use xlink:href="#DejaVuSans-31"/>
       <use xlink:href="#DejaVuSans-2e" x="63.623047"/>
       <use xlink:href="#DejaVuSans-35" x="95.410156"/>
      </g>
     </g>
    </g>
    <g id="xtick_5">
     <g id="line2d_9">
      <path d="M 259.594091 277.111219 
L 259.594091 10.999219 
" clip-path="url(#pf5593a2d36)" style="fill: none; stroke: #b0b0b0; stroke-width: 0.8; stroke-linecap: square"/>
     </g>
     <g id="line2d_10">
      <g>
       <use xlink:href="#m07ecf95c12" x="259.594091" y="277.111219" style="stroke: #000000; stroke-width: 0.8"/>
      </g>
     </g>
     <g id="text_5">
      <!-- 2.0 -->
      <g transform="translate(251.642528 291.709656)scale(0.1 -0.1)">
       <defs>
        <path id="DejaVuSans-32" d="M 1228 531 
L 3431 531 
L 3431 0 
L 469 0 
L 469 531 
Q 828 903 1448 1529 
Q 2069 2156 2228 2338 
Q 2531 2678 2651 2914 
Q 2772 3150 2772 3378 
Q 2772 3750 2511 3984 
Q 2250 4219 1831 4219 
Q 1534 4219 1204 4116 
Q 875 4013 500 3803 
L 500 4441 
Q 881 4594 1212 4672 
Q 1544 4750 1819 4750 
Q 2544 4750 2975 4387 
Q 3406 4025 3406 3419 
Q 3406 3131 3298 2873 
Q 3191 2616 2906 2266 
Q 2828 2175 2409 1742 
Q 1991 1309 1228 531 
z
" transform="scale(0.015625)"/>
       </defs>
       <use xlink:href="#DejaVuSans-32"/>
       <use xlink:href="#DejaVuSans-2e" x="63.623047"/>
       <use xlink:href="#DejaVuSans-30" x="95.410156"/>
      </g>
     </g>
    </g>
    <g id="xtick_6">
     <g id="line2d_11">
      <path d="M 313.703182 277.111219 
L 313.703182 10.999219 
" clip-path="url(#pf5593a2d36)" style="fill: none; stroke: #b0b0b0; stroke-width: 0.8; stroke-linecap: square"/>
     </g>
     <g id="line2d_12">
      <g>
       <use xlink:href="#m07ecf95c12" x="313.703182" y="277.111219" style="stroke: #000000; stroke-width: 0.8"/>
      </g>
     </g>
     <g id="text_6">
      <!-- 2.5 -->
      <g transform="translate(305.751619 291.709656)scale(0.1 -0.1)">
       <use xlink:href="#DejaVuSans-32"/>
       <use xlink:href="#DejaVuSans-2e" x="63.623047"/>
       <use xlink:href="#DejaVuSans-35" x="95.410156"/>
      </g>
     </g>
    </g>
    <g id="xtick_7">
     <g id="line2d_13">
      <path d="M 367.812273 277.111219 
L 367.812273 10.999219 
" clip-path="url(#pf5593a2d36)" style="fill: none; stroke: #b0b0b0; stroke-width: 0.8; stroke-linecap: square"/>
     </g>
     <g id="line2d_14">
      <g>
       <use xlink:href="#m07ecf95c12" x="367.812273" y="277.111219" style="stroke: #000000; stroke-width: 0.8"/>
      </g>
     </g>
     <g id="text_7">
      <!-- 3.0 -->
      <g transform="translate(359.86071 291.709656)scale(0.1 -0.1)">
       <defs>
        <path id="DejaVuSans-33" d="M 2597 2516 
Q 3050 2419 3304 2112 
Q 3559 1806 3559 1356 
Q 3559 666 3084 287 
Q 2609 -91 1734 -91 
Q 1441 -91 1130 -33 
Q 819 25 488 141 
L 488 750 
Q 750 597 1062 519 
Q 1375 441 1716 441 
Q 2309 441 2620 675 
Q 2931 909 2931 1356 
Q 2931 1769 2642 2001 
Q 2353 2234 1838 2234 
L 1294 2234 
L 1294 2753 
L 1863 2753 
Q 2328 2753 2575 2939 
Q 2822 3125 2822 3475 
Q 2822 3834 2567 4026 
Q 2313 4219 1838 4219 
Q 1578 4219 1281 4162 
Q 984 4106 628 3988 
L 628 4550 
Q 988 4650 1302 4700 
Q 1616 4750 1894 4750 
Q 2613 4750 3031 4423 
Q 3450 4097 3450 3541 
Q 3450 3153 3228 2886 
Q 3006 2619 2597 2516 
z
" transform="scale(0.015625)"/>
       </defs>
       <use xlink:href="#DejaVuSans-33"/>
       <use xlink:href="#DejaVuSans-2e" x="63.623047"/>
       <use xlink:href="#DejaVuSans-30" x="95.410156"/>
      </g>
     </g>
    </g>
    <g id="text_8">
     <!-- x(t) -->
     <g transform="translate(196.663906 305.387781)scale(0.1 -0.1)">
      <defs>
       <path id="DejaVuSans-78" d="M 3513 3500 
L 2247 1797 
L 3578 0 
L 2900 0 
L 1881 1375 
L 863 0 
L 184 0 
L 1544 1831 
L 300 3500 
L 978 3500 
L 1906 2253 
L 2834 3500 
L 3513 3500 
z
" transform="scale(0.015625)"/>
       <path id="DejaVuSans-28" d="M 1984 4856 
Q 1566 4138 1362 3434 
Q 1159 2731 1159 2009 
Q 1159 1288 1364 580 
Q 1569 -128 1984 -844 
L 1484 -844 
Q 1016 -109 783 600 
Q 550 1309 550 2009 
Q 550 2706 781 3412 
Q 1013 4119 1484 4856 
L 1984 4856 
z
" transform="scale(0.015625)"/>
       <path id="DejaVuSans-74" d="M 1172 4494 
L 1172 3500 
L 2356 3500 
L 2356 3053 
L 1172 3053 
L 1172 1153 
Q 1172 725 1289 603 
Q 1406 481 1766 481 
L 2356 481 
L 2356 0 
L 1766 0 
Q 1100 0 847 248 
Q 594 497 594 1153 
L 594 3053 
L 172 3053 
L 172 3500 
L 594 3500 
L 594 4494 
L 1172 4494 
z
" transform="scale(0.015625)"/>
       <path id="DejaVuSans-29" d="M 513 4856 
L 1013 4856 
Q 1481 4119 1714 3412 
Q 1947 2706 1947 2009 
Q 1947 1309 1714 600 
Q 1481 -109 1013 -844 
L 513 -844 
Q 928 -128 1133 580 
Q 1338 1288 1338 2009 
Q 1338 2731 1133 3434 
Q 928 4138 513 4856 
z
" transform="scale(0.015625)"/>
      </defs>
      <use xlink:href="#DejaVuSans-78"/>
      <use xlink:href="#DejaVuSans-28" x="59.179688"/>
      <use xlink:href="#DejaVuSans-74" x="98.193359"/>
      <use xlink:href="#DejaVuSans-29" x="137.402344"/>
     </g>
    </g>
   </g>
   <g id="matplotlib.axis_2">
    <g id="ytick_1">
     <g id="line2d_15">
      <path d="M 26.925 252.919219 
L 384.045 252.919219 
" clip-path="url(#pf5593a2d36)" style="fill: none; stroke: #b0b0b0; stroke-width: 0.8; stroke-linecap: square"/>
     </g>
     <g id="line2d_16">
      <defs>
       <path id="m632ed5a7b9" d="M 0 0 
L -3.5 0 
" style="stroke: #000000; stroke-width: 0.8"/>
      </defs>
      <g>
       <use xlink:href="#m632ed5a7b9" x="26.925" y="252.919219" style="stroke: #000000; stroke-width: 0.8"/>
      </g>
     </g>
     <g id="text_9">
      <!-- 0 -->
      <g transform="translate(13.5625 256.718437)scale(0.1 -0.1)">
       <use xlink:href="#DejaVuSans-30"/>
      </g>
     </g>
    </g>
    <g id="ytick_2">
     <g id="line2d_17">
      <path d="M 26.925 204.535219 
L 384.045 204.535219 
" clip-path="url(#pf5593a2d36)" style="fill: none; stroke: #b0b0b0; stroke-width: 0.8; stroke-linecap: square"/>
     </g>
     <g id="line2d_18">
      <g>
       <use xlink:href="#m632ed5a7b9" x="26.925" y="204.535219" style="stroke: #000000; stroke-width: 0.8"/>
      </g>
     </g>
     <g id="text_10">
      <!-- 2 -->
      <g transform="translate(13.5625 208.334437)scale(0.1 -0.1)">
       <use xlink:href="#DejaVuSans-32"/>
      </g>
     </g>
    </g>
    <g id="ytick_3">
     <g id="line2d_19">
      <path d="M 26.925 156.151219 
L 384.045 156.151219 
" clip-path="url(#pf5593a2d36)" style="fill: none; stroke: #b0b0b0; stroke-width: 0.8; stroke-linecap: square"/>
     </g>
     <g id="line2d_20">
      <g>
       <use xlink:href="#m632ed5a7b9" x="26.925" y="156.151219" style="stroke: #000000; stroke-width: 0.8"/>
      </g>
     </g>
     <g id="text_11">
      <!-- 4 -->
      <g transform="translate(13.5625 159.950437)scale(0.1 -0.1)">
       <defs>
        <path id="DejaVuSans-34" d="M 2419 4116 
L 825 1625 
L 2419 1625 
L 2419 4116 
z
M 2253 4666 
L 3047 4666 
L 3047 1625 
L 3713 1625 
L 3713 1100 
L 3047 1100 
L 3047 0 
L 2419 0 
L 2419 1100 
L 313 1100 
L 313 1709 
L 2253 4666 
z
" transform="scale(0.015625)"/>
       </defs>
       <use xlink:href="#DejaVuSans-34"/>
      </g>
     </g>
    </g>
    <g id="ytick_4">
     <g id="line2d_21">
      <path d="M 26.925 107.767219 
L 384.045 107.767219 
" clip-path="url(#pf5593a2d36)" style="fill: none; stroke: #b0b0b0; stroke-width: 0.8; stroke-linecap: square"/>
     </g>
     <g id="line2d_22">
      <g>
       <use xlink:href="#m632ed5a7b9" x="26.925" y="107.767219" style="stroke: #000000; stroke-width: 0.8"/>
      </g>
     </g>
     <g id="text_12">
      <!-- 6 -->
      <g transform="translate(13.5625 111.566437)scale(0.1 -0.1)">
       <defs>
        <path id="DejaVuSans-36" d="M 2113 2584 
Q 1688 2584 1439 2293 
Q 1191 2003 1191 1497 
Q 1191 994 1439 701 
Q 1688 409 2113 409 
Q 2538 409 2786 701 
Q 3034 994 3034 1497 
Q 3034 2003 2786 2293 
Q 2538 2584 2113 2584 
z
M 3366 4563 
L 3366 3988 
Q 3128 4100 2886 4159 
Q 2644 4219 2406 4219 
Q 1781 4219 1451 3797 
Q 1122 3375 1075 2522 
Q 1259 2794 1537 2939 
Q 1816 3084 2150 3084 
Q 2853 3084 3261 2657 
Q 3669 2231 3669 1497 
Q 3669 778 3244 343 
Q 2819 -91 2113 -91 
Q 1303 -91 875 529 
Q 447 1150 447 2328 
Q 447 3434 972 4092 
Q 1497 4750 2381 4750 
Q 2619 4750 2861 4703 
Q 3103 4656 3366 4563 
z
" transform="scale(0.015625)"/>
       </defs>
       <use xlink:href="#DejaVuSans-36"/>
      </g>
     </g>
    </g>
    <g id="ytick_5">
     <g id="line2d_23">
      <path d="M 26.925 59.383219 
L 384.045 59.383219 
" clip-path="url(#pf5593a2d36)" style="fill: none; stroke: #b0b0b0; stroke-width: 0.8; stroke-linecap: square"/>
     </g>
     <g id="line2d_24">
      <g>
       <use xlink:href="#m632ed5a7b9" x="26.925" y="59.383219" style="stroke: #000000; stroke-width: 0.8"/>
      </g>
     </g>
     <g id="text_13">
      <!-- 8 -->
      <g transform="translate(13.5625 63.182437)scale(0.1 -0.1)">
       <defs>
        <path id="DejaVuSans-38" d="M 2034 2216 
Q 1584 2216 1326 1975 
Q 1069 1734 1069 1313 
Q 1069 891 1326 650 
Q 1584 409 2034 409 
Q 2484 409 2743 651 
Q 3003 894 3003 1313 
Q 3003 1734 2745 1975 
Q 2488 2216 2034 2216 
z
M 1403 2484 
Q 997 2584 770 2862 
Q 544 3141 544 3541 
Q 544 4100 942 4425 
Q 1341 4750 2034 4750 
Q 2731 4750 3128 4425 
Q 3525 4100 3525 3541 
Q 3525 3141 3298 2862 
Q 3072 2584 2669 2484 
Q 3125 2378 3379 2068 
Q 3634 1759 3634 1313 
Q 3634 634 3220 271 
Q 2806 -91 2034 -91 
Q 1263 -91 848 271 
Q 434 634 434 1313 
Q 434 1759 690 2068 
Q 947 2378 1403 2484 
z
M 1172 3481 
Q 1172 3119 1398 2916 
Q 1625 2713 2034 2713 
Q 2441 2713 2670 2916 
Q 2900 3119 2900 3481 
Q 2900 3844 2670 4047 
Q 2441 4250 2034 4250 
Q 1625 4250 1398 4047 
Q 1172 3844 1172 3481 
z
" transform="scale(0.015625)"/>
       </defs>
       <use xlink:href="#DejaVuSans-38"/>
      </g>
     </g>
    </g>
    <g id="ytick_6">
     <g id="line2d_25">
      <path d="M 26.925 10.999219 
L 384.045 10.999219 
" clip-path="url(#pf5593a2d36)" style="fill: none; stroke: #b0b0b0; stroke-width: 0.8; stroke-linecap: square"/>
     </g>
     <g id="line2d_26">
      <g>
       <use xlink:href="#m632ed5a7b9" x="26.925" y="10.999219" style="stroke: #000000; stroke-width: 0.8"/>
      </g>
     </g>
     <g id="text_14">
      <!-- 10 -->
      <g transform="translate(7.2 14.798437)scale(0.1 -0.1)">
       <use xlink:href="#DejaVuSans-31"/>
       <use xlink:href="#DejaVuSans-30" x="63.623047"/>
      </g>
     </g>
    </g>
   </g>
   <g id="line2d_27">
    <path d="M 193.985407 -1 
L 197.858887 27.002298 
L 202.216666 55.964882 
L 206.574445 82.405838 
L 210.932224 106.428011 
L 215.290003 128.134242 
L 217.468893 138.151019 
L 219.647782 147.627376 
L 221.826672 156.57617 
L 224.005561 165.010256 
L 226.184451 172.942488 
L 228.36334 180.385724 
L 230.54223 187.352817 
L 232.72112 193.856623 
L 234.900009 199.909999 
L 237.078899 205.525798 
L 239.257788 210.716877 
L 241.436678 215.49609 
L 243.615567 219.876295 
L 245.794457 223.870344 
L 247.973347 227.491095 
L 250.152236 230.751402 
L 252.331126 233.664121 
L 254.510015 236.242108 
L 256.688905 238.498217 
L 258.867794 240.445304 
L 261.046684 242.096224 
L 263.225574 243.463833 
L 265.404463 244.560987 
L 267.583353 245.40054 
L 269.762242 245.995348 
L 271.941132 246.358266 
L 274.120021 246.502151 
L 276.298911 246.439856 
L 278.4778 246.184238 
L 280.65669 245.748152 
L 282.83558 245.144453 
L 285.014469 244.385997 
L 287.193359 243.48564 
L 291.551138 241.31064 
L 295.908917 238.722297 
L 300.266696 235.823455 
L 306.803365 231.117975 
L 317.697813 223.179954 
L 322.055592 220.271261 
L 326.413371 217.669127 
L 330.77115 215.476396 
L 332.95004 214.565694 
L 335.128929 213.79591 
L 337.307819 213.179897 
L 339.486708 212.730512 
L 341.665598 212.46061 
L 343.844487 212.383047 
L 346.023377 212.510677 
L 348.202267 212.856356 
L 350.381156 213.43294 
L 352.560046 214.253284 
L 354.738935 215.330243 
L 356.917825 216.676672 
L 359.096714 218.305428 
L 361.275604 220.229365 
L 363.454494 222.46134 
L 365.633383 225.014206 
L 367.812273 227.90082 
L 367.812273 227.90082 
" clip-path="url(#pf5593a2d36)" style="fill: none; stroke: #0000ff; stroke-width: 1.5; stroke-linecap: square"/>
   </g>
   <g id="line2d_28">
    <path d="M 43.157727 252.919219 
L 51.873286 252.337574 
L 60.588844 251.974012 
L 71.483292 251.753205 
L 86.735519 251.712423 
L 112.882193 251.687744 
L 123.776641 251.439644 
L 132.4922 251.046059 
L 141.207758 250.427113 
L 149.923316 249.534866 
L 156.459985 248.657488 
L 162.996653 247.579188 
L 169.533322 246.279741 
L 176.069991 244.738922 
L 182.60666 242.936506 
L 189.143328 240.852269 
L 195.679997 238.465987 
L 202.216666 235.757434 
L 208.753334 232.706387 
L 215.290003 229.29262 
L 219.647782 226.805277 
L 224.005561 224.141744 
L 228.36334 221.296028 
L 232.72112 218.262138 
L 237.078899 215.03408 
L 241.436678 211.605863 
L 245.794457 207.971493 
L 250.152236 204.124978 
L 254.510015 200.060326 
L 258.867794 195.771545 
L 263.225574 191.252641 
L 267.583353 186.497622 
L 271.941132 181.500496 
L 276.298911 176.25527 
L 280.65669 170.755953 
L 285.014469 164.99655 
L 289.372248 158.971071 
L 293.730027 152.673521 
L 298.087807 146.09791 
L 302.445586 139.238244 
L 306.803365 132.088531 
L 311.161144 124.642778 
L 315.518923 116.894993 
L 319.876702 108.839184 
L 326.413371 96.164816 
L 332.95004 82.763685 
L 339.486708 68.615566 
L 346.023377 53.700235 
L 352.560046 37.997467 
L 359.096714 21.487037 
L 365.633383 4.148722 
L 367.513502 -1 
L 367.513502 -1 
" clip-path="url(#pf5593a2d36)" style="fill: none; stroke: #bf00bf; stroke-width: 1.5; stroke-linecap: square"/>
   </g>
   <g id="line2d_29">
    <path d="M 26.925 252.919219 
L 384.045 252.919219 
" clip-path="url(#pf5593a2d36)" style="fill: none; stroke: #000000; stroke-width: 1.5; stroke-linecap: square"/>
   </g>
   <g id="line2d_30">
    <path d="M 43.157727 277.111219 
L 43.157727 10.999219 
" clip-path="url(#pf5593a2d36)" style="fill: none; stroke: #000000; stroke-width: 1.5; stroke-linecap: square"/>
   </g>
   <g id="line2d_31">
    <path d="M 26.925 228.727219 
L 384.045 228.727219 
" clip-path="url(#pf5593a2d36)" style="fill: none; stroke-dasharray: 5.55,2.4; stroke-dashoffset: 0; stroke: #ff0000; stroke-width: 1.5"/>
   </g>
   <g id="line2d_32">
    <path d="M 26.925 241.065139 
L 384.045 241.065139 
" clip-path="url(#pf5593a2d36)" style="fill: none; stroke-dasharray: 5.55,2.4; stroke-dashoffset: 0; stroke: #008000; stroke-width: 1.5"/>
   </g>
   <g id="patch_3">
    <path d="M 26.925 277.111219 
L 26.925 10.999219 
" style="fill: none; stroke: #000000; stroke-width: 0.8; stroke-linejoin: miter; stroke-linecap: square"/>
   </g>
   <g id="patch_4">
    <path d="M 384.045 277.111219 
L 384.045 10.999219 
" style="fill: none; stroke: #000000; stroke-width: 0.8; stroke-linejoin: miter; stroke-linecap: square"/>
   </g>
   <g id="patch_5">
    <path d="M 26.925 277.111219 
L 384.045 277.111219 
" style="fill: none; stroke: #000000; stroke-width: 0.8; stroke-linejoin: miter; stroke-linecap: square"/>
   </g>
   <g id="patch_6">
    <path d="M 26.925 10.999219 
L 384.045 10.999219 
" style="fill: none; stroke: #000000; stroke-width: 0.8; stroke-linejoin: miter; stroke-linecap: square"/>
   </g>
   <g id="legend_1">
    <g id="patch_7">
     <path d="M 33.925 77.711719 
L 100.592188 77.711719 
Q 102.592188 77.711719 102.592188 75.711719 
L 102.592188 17.999219 
Q 102.592188 15.999219 100.592188 15.999219 
L 33.925 15.999219 
Q 31.925 15.999219 31.925 17.999219 
L 31.925 75.711719 
Q 31.925 77.711719 33.925 77.711719 
z
" style="fill: #ffffff; opacity: 0.8; stroke: #cccccc; stroke-linejoin: miter"/>
    </g>
    <g id="line2d_33">
     <path d="M 35.925 24.097656 
L 45.925 24.097656 
L 55.925 24.097656 
" style="fill: none; stroke: #0000ff; stroke-width: 1.5; stroke-linecap: square"/>
    </g>
    <g id="text_15">
     <!-- B0 -->
     <g transform="translate(63.925 27.597656)scale(0.1 -0.1)">
      <defs>
       <path id="DejaVuSans-42" d="M 1259 2228 
L 1259 519 
L 2272 519 
Q 2781 519 3026 730 
Q 3272 941 3272 1375 
Q 3272 1813 3026 2020 
Q 2781 2228 2272 2228 
L 1259 2228 
z
M 1259 4147 
L 1259 2741 
L 2194 2741 
Q 2656 2741 2882 2914 
Q 3109 3088 3109 3444 
Q 3109 3797 2882 3972 
Q 2656 4147 2194 4147 
L 1259 4147 
z
M 628 4666 
L 2241 4666 
Q 2963 4666 3353 4366 
Q 3744 4066 3744 3513 
Q 3744 3084 3544 2831 
Q 3344 2578 2956 2516 
Q 3422 2416 3680 2098 
Q 3938 1781 3938 1306 
Q 3938 681 3513 340 
Q 3088 0 2303 0 
L 628 0 
L 628 4666 
z
" transform="scale(0.015625)"/>
      </defs>
      <use xlink:href="#DejaVuSans-42"/>
      <use xlink:href="#DejaVuSans-30" x="68.603516"/>
     </g>
    </g>
    <g id="line2d_34">
     <path d="M 35.925 38.775781 
L 45.925 38.775781 
L 55.925 38.775781 
" style="fill: none; stroke: #bf00bf; stroke-width: 1.5; stroke-linecap: square"/>
    </g>
    <g id="text_16">
     <!-- B1 -->
     <g transform="translate(63.925 42.275781)scale(0.1 -0.1)">
      <use xlink:href="#DejaVuSans-42"/>
      <use xlink:href="#DejaVuSans-31" x="68.603516"/>
     </g>
    </g>
    <g id="patch_8">
     <path d="M 35.925 56.953906 
L 55.925 56.953906 
L 55.925 49.953906 
L 35.925 49.953906 
z
" style="fill: #008000; fill-opacity: 0.3"/>
    </g>
    <g id="text_17">
     <!-- Initial -->
     <g transform="translate(63.925 56.953906)scale(0.1 -0.1)">
      <defs>
       <path id="DejaVuSans-49" d="M 628 4666 
L 1259 4666 
L 1259 0 
L 628 0 
L 628 4666 
z
" transform="scale(0.015625)"/>
       <path id="DejaVuSans-6e" d="M 3513 2113 
L 3513 0 
L 2938 0 
L 2938 2094 
Q 2938 2591 2744 2837 
Q 2550 3084 2163 3084 
Q 1697 3084 1428 2787 
Q 1159 2491 1159 1978 
L 1159 0 
L 581 0 
L 581 3500 
L 1159 3500 
L 1159 2956 
Q 1366 3272 1645 3428 
Q 1925 3584 2291 3584 
Q 2894 3584 3203 3211 
Q 3513 2838 3513 2113 
z
" transform="scale(0.015625)"/>
       <path id="DejaVuSans-69" d="M 603 3500 
L 1178 3500 
L 1178 0 
L 603 0 
L 603 3500 
z
M 603 4863 
L 1178 4863 
L 1178 4134 
L 603 4134 
L 603 4863 
z
" transform="scale(0.015625)"/>
       <path id="DejaVuSans-61" d="M 2194 1759 
Q 1497 1759 1228 1600 
Q 959 1441 959 1056 
Q 959 750 1161 570 
Q 1363 391 1709 391 
Q 2188 391 2477 730 
Q 2766 1069 2766 1631 
L 2766 1759 
L 2194 1759 
z
M 3341 1997 
L 3341 0 
L 2766 0 
L 2766 531 
Q 2569 213 2275 61 
Q 1981 -91 1556 -91 
Q 1019 -91 701 211 
Q 384 513 384 1019 
Q 384 1609 779 1909 
Q 1175 2209 1959 2209 
L 2766 2209 
L 2766 2266 
Q 2766 2663 2505 2880 
Q 2244 3097 1772 3097 
Q 1472 3097 1187 3025 
Q 903 2953 641 2809 
L 641 3341 
Q 956 3463 1253 3523 
Q 1550 3584 1831 3584 
Q 2591 3584 2966 3190 
Q 3341 2797 3341 1997 
z
" transform="scale(0.015625)"/>
       <path id="DejaVuSans-6c" d="M 603 4863 
L 1178 4863 
L 1178 0 
L 603 0 
L 603 4863 
z
" transform="scale(0.015625)"/>
      </defs>
      <use xlink:href="#DejaVuSans-49"/>
      <use xlink:href="#DejaVuSans-6e" x="29.492188"/>
      <use xlink:href="#DejaVuSans-69" x="92.871094"/>
      <use xlink:href="#DejaVuSans-74" x="120.654297"/>
      <use xlink:href="#DejaVuSans-69" x="159.863281"/>
      <use xlink:href="#DejaVuSans-61" x="187.646484"/>
      <use xlink:href="#DejaVuSans-6c" x="248.925781"/>
     </g>
    </g>
    <g id="patch_9">
     <path d="M 35.925 71.632031 
L 55.925 71.632031 
L 55.925 64.632031 
L 35.925 64.632031 
z
" style="fill: #ff0000; fill-opacity: 0.3"/>
    </g>
    <g id="text_18">
     <!-- Unsafe -->
     <g transform="translate(63.925 71.632031)scale(0.1 -0.1)">
      <defs>
       <path id="DejaVuSans-55" d="M 556 4666 
L 1191 4666 
L 1191 1831 
Q 1191 1081 1462 751 
Q 1734 422 2344 422 
Q 2950 422 3222 751 
Q 3494 1081 3494 1831 
L 3494 4666 
L 4128 4666 
L 4128 1753 
Q 4128 841 3676 375 
Q 3225 -91 2344 -91 
Q 1459 -91 1007 375 
Q 556 841 556 1753 
L 556 4666 
z
" transform="scale(0.015625)"/>
       <path id="DejaVuSans-73" d="M 2834 3397 
L 2834 2853 
Q 2591 2978 2328 3040 
Q 2066 3103 1784 3103 
Q 1356 3103 1142 2972 
Q 928 2841 928 2578 
Q 928 2378 1081 2264 
Q 1234 2150 1697 2047 
L 1894 2003 
Q 2506 1872 2764 1633 
Q 3022 1394 3022 966 
Q 3022 478 2636 193 
Q 2250 -91 1575 -91 
Q 1294 -91 989 -36 
Q 684 19 347 128 
L 347 722 
Q 666 556 975 473 
Q 1284 391 1588 391 
Q 1994 391 2212 530 
Q 2431 669 2431 922 
Q 2431 1156 2273 1281 
Q 2116 1406 1581 1522 
L 1381 1569 
Q 847 1681 609 1914 
Q 372 2147 372 2553 
Q 372 3047 722 3315 
Q 1072 3584 1716 3584 
Q 2034 3584 2315 3537 
Q 2597 3491 2834 3397 
z
" transform="scale(0.015625)"/>
       <path id="DejaVuSans-66" d="M 2375 4863 
L 2375 4384 
L 1825 4384 
Q 1516 4384 1395 4259 
Q 1275 4134 1275 3809 
L 1275 3500 
L 2222 3500 
L 2222 3053 
L 1275 3053 
L 1275 0 
L 697 0 
L 697 3053 
L 147 3053 
L 147 3500 
L 697 3500 
L 697 3744 
Q 697 4328 969 4595 
Q 1241 4863 1831 4863 
L 2375 4863 
z
" transform="scale(0.015625)"/>
       <path id="DejaVuSans-65" d="M 3597 1894 
L 3597 1613 
L 953 1613 
Q 991 1019 1311 708 
Q 1631 397 2203 397 
Q 2534 397 2845 478 
Q 3156 559 3463 722 
L 3463 178 
Q 3153 47 2828 -22 
Q 2503 -91 2169 -91 
Q 1331 -91 842 396 
Q 353 884 353 1716 
Q 353 2575 817 3079 
Q 1281 3584 2069 3584 
Q 2775 3584 3186 3129 
Q 3597 2675 3597 1894 
z
M 3022 2063 
Q 3016 2534 2758 2815 
Q 2500 3097 2075 3097 
Q 1594 3097 1305 2825 
Q 1016 2553 972 2059 
L 3022 2063 
z
" transform="scale(0.015625)"/>
      </defs>
      <use xlink:href="#DejaVuSans-55"/>
      <use xlink:href="#DejaVuSans-6e" x="73.193359"/>
      <use xlink:href="#DejaVuSans-73" x="136.572266"/>
      <use xlink:href="#DejaVuSans-61" x="188.671875"/>
      <use xlink:href="#DejaVuSans-66" x="249.951172"/>
      <use xlink:href="#DejaVuSans-65" x="285.15625"/>
     </g>
    </g>
   </g>
  </g>
 </g>
 <defs>
  <clipPath id="pf5593a2d36">
   <rect x="26.925" y="10.999219" width="357.12" height="266.112"/>
  </clipPath>
 </defs>
</svg>
