<?xml version="1.0" encoding="utf-8" standalone="no"?>
<!DOCTYPE svg PUBLIC "-//W3C//DTD SVG 1.1//EN"
  "http://www.w3.org/Graphics/SVG/1.1/DTD/svg11.dtd">
<svg xmlns:xlink="http://www.w3.org/1999/xlink" width="404.923125pt" height="227.115469pt" viewBox="0 0 404.923125 227.115469" xmlns="http://www.w3.org/2000/svg" version="1.1">
 <metadata>
  <rdf:RDF xmlns:dc="http://purl.org/dc/elements/1.1/" xmlns:cc="http://creativecommons.org/ns#" xmlns:rdf="http://www.w3.org/1999/02/22-rdf-syntax-ns#">
   <cc:Work>
    <dc:type rdf:resource="http://purl.org/dc/dcmitype/StillImage"/>
    <dc:date>2025-02-07T08:42:56.477466</dc:date>
    <dc:format>image/svg+xml</dc:format>
    <dc:creator>
     <cc:Agent>
      <dc:title>Matplotlib v3.5.3, https://matplotlib.org/</dc:title>
     </cc:Agent>
    </dc:creator>
   </cc:Work>
  </rdf:RDF>
 </metadata>
 <defs>
  <style type="text/css">*{stroke-linejoin: round; stroke-linecap: butt}</style>
 </defs>
 <g id="figure_1">
  <g id="patch_1">
   <path d="M 0 227.115469 
L 404.923125 227.115469 
L 404.923125 0 
L 0 0 
z
" style="fill: #ffffff"/>
  </g>
  <g id="axes_1">
   <g id="patch_2">
    <path d="M 34.240625 189.559219 
L 391.360625 189.559219 
L 391.360625 10.999219 
L 34.240625 10.999219 
z
" style="fill: #ffffff"/>
   </g>
   <g id="PathCollection_1">
    <path d="M 255.655025 126.088063 
L 259.226225 126.770633 
L 262.797425 126.833319 
L 266.368625 126.44521 
L 269.939825 125.737655 
L 271.640176 125.277619 
L 273.511025 124.686839 
L 276.670654 123.492019 
L 277.082225 123.308348 
L 280.203755 121.706419 
L 280.653425 121.430734 
L 282.857114 119.920819 
L 284.224625 118.786277 
L 284.941908 118.135219 
L 286.460582 116.349619 
L 287.594653 114.564019 
L 287.795825 114.065284 
L 288.270984 112.778419 
L 288.600179 110.992819 
L 288.641325 109.207219 
L 288.442009 107.421619 
L 288.060362 105.636019 
L 287.795825 104.687701 
L 287.531093 103.850419 
L 286.912456 102.064819 
L 286.301279 100.279219 
L 285.745872 98.493619 
L 285.277796 96.708019 
L 284.911944 94.922419 
L 284.648112 93.136819 
L 284.473244 91.351219 
L 284.36365 89.565619 
L 284.286696 87.780019 
L 284.224625 86.482439 
L 284.199572 85.994419 
L 284.044427 84.208819 
L 283.761528 82.423219 
L 283.26901 80.637619 
L 282.459834 78.852019 
L 281.186747 77.066419 
L 280.653425 76.564076 
L 278.959117 75.280819 
L 277.082225 74.332122 
L 274.559688 73.495219 
L 273.511025 73.255217 
L 269.939825 72.89696 
L 266.368625 73.00249 
L 262.902054 73.495219 
L 262.797425 73.512477 
L 259.226225 74.580004 
L 257.512754 75.280819 
L 255.655025 76.151453 
L 254.153903 77.066419 
L 252.083825 78.511288 
L 251.695048 78.852019 
L 250.033556 80.637619 
L 248.646018 82.423219 
L 248.512625 82.656157 
L 247.80812 84.208819 
L 247.244756 85.994419 
L 246.909072 87.780019 
L 246.775175 89.565619 
L 246.806589 91.351219 
L 246.960139 93.136819 
L 247.190605 94.922419 
L 247.455248 96.708019 
L 247.717461 98.493619 
L 247.949135 100.279219 
L 248.131695 102.064819 
L 248.256045 103.850419 
L 248.321823 105.636019 
L 248.336335 107.421619 
L 248.313515 109.207219 
L 248.273149 110.992819 
L 248.240511 112.778419 
L 248.246565 114.564019 
L 248.328845 116.349619 
L 248.512625 117.956551 
L 248.538907 118.135219 
L 249.031827 119.920819 
L 249.860672 121.706419 
L 251.169387 123.492019 
L 252.083825 124.332769 
L 253.66831 125.277619 
z
" clip-path="url(#pfc07ec657d)" style="fill: #0000ff; fill-opacity: 0.5"/>
   </g>
   <g id="patch_3">
    <path d="M 248.512625 118.135219 
L 248.512625 118.135219 
L 248.512625 118.135219 
L 248.512625 118.135219 
z
" clip-path="url(#pfc07ec657d)" style="fill: #0000ff; opacity: 0.45; stroke: #0000ff; stroke-linejoin: miter"/>
   </g>
   <g id="PathCollection_2">
    <path d="M 37.811825 189.559219 
L 41.383025 189.559219 
L 44.954225 189.559219 
L 48.525425 189.559219 
L 52.096625 189.559219 
L 55.667825 189.559219 
L 59.239025 189.559219 
L 62.810225 189.559219 
L 66.381425 189.559219 
L 69.952625 189.559219 
L 73.523825 189.559219 
L 77.095025 189.559219 
L 80.666225 189.559219 
L 84.237425 189.559219 
L 87.808625 189.559219 
L 91.379825 189.559219 
L 94.951025 189.559219 
L 98.522225 189.559219 
L 102.093425 189.559219 
L 105.664625 189.559219 
L 109.235825 189.559219 
L 112.807025 189.559219 
L 116.378225 189.559219 
L 119.949425 189.559219 
L 120.721646 189.559219 
L 121.274622 187.773619 
L 121.843827 185.988019 
L 122.428498 184.202419 
L 123.027808 182.416819 
L 123.520625 180.970069 
L 123.613161 180.631219 
L 124.092238 178.845619 
L 124.57593 177.060019 
L 125.063192 175.274419 
L 125.552941 173.488819 
L 126.044049 171.703219 
L 126.535348 169.917619 
L 127.025629 168.132019 
L 127.091825 167.882371 
L 127.411439 166.346419 
L 127.77574 164.560819 
L 128.133405 162.775219 
L 128.483471 160.989619 
L 128.824979 159.204019 
L 129.156974 157.418419 
L 129.478513 155.632819 
L 129.788666 153.847219 
L 130.086517 152.061619 
L 130.371172 150.276019 
L 130.641759 148.490419 
L 130.663025 148.338464 
L 130.837777 146.704819 
L 131.015636 144.919219 
L 131.180279 143.133619 
L 131.331317 141.348019 
L 131.468388 139.562419 
L 131.59116 137.776819 
L 131.69933 135.991219 
L 131.792615 134.205619 
L 131.870754 132.420019 
L 131.933504 130.634419 
L 131.980631 128.848819 
L 132.01191 127.063219 
L 132.027117 125.277619 
L 132.026025 123.492019 
L 132.008397 121.706419 
L 131.973984 119.920819 
L 131.922516 118.135219 
L 131.853703 116.349619 
L 131.767226 114.564019 
L 131.662736 112.778419 
L 131.539854 110.992819 
L 131.398167 109.207219 
L 131.23723 107.421619 
L 131.056566 105.636019 
L 130.855669 103.850419 
L 130.663025 102.300023 
L 130.623529 102.064819 
L 130.293721 100.279219 
L 129.936072 98.493619 
L 129.550231 96.708019 
L 129.135855 94.922419 
L 128.692618 93.136819 
L 128.220209 91.351219 
L 127.718338 89.565619 
L 127.186742 87.780019 
L 127.091825 87.483625 
L 126.462029 85.994419 
L 125.670185 84.208819 
L 124.845401 82.423219 
L 123.988078 80.637619 
L 123.520625 79.71285 
L 122.951901 78.852019 
L 121.720918 77.066419 
L 120.462233 75.280819 
L 119.949425 74.585037 
L 118.909849 73.495219 
L 117.163143 71.709619 
L 116.378225 70.933044 
L 115.066192 69.924019 
L 112.807025 68.219185 
L 112.669332 68.138419 
L 109.509616 66.352819 
L 109.235825 66.203476 
L 105.664625 64.689237 
L 105.288551 64.567219 
L 102.093425 63.587547 
L 98.590397 62.781619 
L 98.522225 62.76695 
L 94.951025 62.25451 
L 91.379825 61.963661 
L 87.808625 61.887835 
L 84.237425 62.023495 
L 80.666225 62.369255 
L 78.028976 62.781619 
L 77.095025 62.938632 
L 73.523825 63.774528 
L 70.869267 64.567219 
L 69.952625 64.856333 
L 66.381425 66.241003 
L 66.141545 66.352819 
L 62.810225 67.969821 
L 62.513943 68.138419 
L 59.489559 69.924019 
L 59.239025 70.077091 
L 56.93707 71.709619 
L 55.667825 72.631773 
L 54.629352 73.495219 
L 52.537163 75.280819 
L 52.096625 75.669028 
L 50.697058 77.066419 
L 48.942381 78.852019 
L 48.525425 79.289978 
L 47.379959 80.637619 
L 45.895488 82.423219 
L 44.954225 83.581059 
L 44.492386 84.208819 
L 43.221082 85.994419 
L 41.971188 87.780019 
L 41.383025 88.642406 
L 40.805963 89.565619 
L 39.721289 91.351219 
L 38.655953 93.136819 
L 37.811825 94.579915 
L 37.62513 94.922419 
L 36.683421 96.708019 
L 35.759323 98.493619 
L 34.851152 100.279219 
L 34.240625 101.505163 
L 34.240625 102.064819 
L 34.240625 103.850419 
L 34.240625 105.636019 
L 34.240625 107.421619 
L 34.240625 109.207219 
L 34.240625 110.992819 
L 34.240625 112.778419 
L 34.240625 114.564019 
L 34.240625 116.349619 
L 34.240625 118.135219 
L 34.240625 119.920819 
L 34.240625 121.706419 
L 34.240625 123.492019 
L 34.240625 125.277619 
L 34.240625 127.063219 
L 34.240625 128.848819 
L 34.240625 130.634419 
L 34.240625 132.420019 
L 34.240625 134.205619 
L 34.240625 135.991219 
L 34.240625 137.776819 
L 34.240625 139.562419 
L 34.240625 141.348019 
L 34.240625 143.133619 
L 34.240625 144.919219 
L 34.240625 146.704819 
L 34.240625 148.490419 
L 34.240625 150.276019 
L 34.240625 152.061619 
L 34.240625 153.847219 
L 34.240625 155.632819 
L 34.240625 157.418419 
L 34.240625 159.204019 
L 34.240625 160.989619 
L 34.240625 162.775219 
L 34.240625 164.560819 
L 34.240625 166.346419 
L 34.240625 168.132019 
L 34.240625 169.917619 
L 34.240625 171.703219 
L 34.240625 173.488819 
L 34.240625 175.274419 
L 34.240625 177.060019 
L 34.240625 178.845619 
L 34.240625 180.631219 
L 34.240625 182.416819 
L 34.240625 184.202419 
L 34.240625 185.988019 
L 34.240625 187.773619 
L 34.240625 189.559219 
z
" clip-path="url(#pfc07ec657d)" style="fill: #ffa500; fill-opacity: 0.5"/>
   </g>
   <g id="patch_4">
    <path d="M 34.240625 189.559219 
L 34.240625 189.559219 
L 34.240625 189.559219 
L 34.240625 189.559219 
z
" clip-path="url(#pfc07ec657d)" style="fill: #ffa500; opacity: 0.5; stroke: #ffa500; stroke-linejoin: miter"/>
   </g>
   <g id="patch_5">
    <path d="M 248.512625 118.135219 
L 284.224625 118.135219 
L 284.224625 82.423219 
L 248.512625 82.423219 
z
" clip-path="url(#pfc07ec657d)" style="fill: #90ee90; stroke: #90ee90; stroke-linejoin: miter"/>
   </g>
   <g id="patch_6">
    <path d="M 141.376625 189.559219 
L 212.800625 189.559219 
L 212.800625 82.423219 
L 141.376625 82.423219 
z
" clip-path="url(#pfc07ec657d)" style="fill: #ff0000; opacity: 0.9; stroke: #ff0000; stroke-linejoin: miter"/>
   </g>
   <g id="matplotlib.axis_1">
    <g id="xtick_1">
     <g id="line2d_1">
      <path d="M 34.240625 189.559219 
L 34.240625 10.999219 
" clip-path="url(#pfc07ec657d)" style="fill: none; stroke: #b0b0b0; stroke-width: 0.8; stroke-linecap: square"/>
     </g>
     <g id="line2d_2">
      <defs>
       <path id="me1f7f708bc" d="M 0 0 
L 0 3.5 
" style="stroke: #000000; stroke-width: 0.8"/>
      </defs>
      <g>
       <use xlink:href="#me1f7f708bc" x="34.240625" y="189.559219" style="stroke: #000000; stroke-width: 0.8"/>
      </g>
     </g>
     <g id="text_1">
      <!-- 0 -->
      <g transform="translate(31.059375 204.157656)scale(0.1 -0.1)">
       <defs>
        <path id="DejaVuSans-30" d="M 2034 4250 
Q 1547 4250 1301 3770 
Q 1056 3291 1056 2328 
Q 1056 1369 1301 889 
Q 1547 409 2034 409 
Q 2525 409 2770 889 
Q 3016 1369 3016 2328 
Q 3016 3291 2770 3770 
Q 2525 4250 2034 4250 
z
M 2034 4750 
Q 2819 4750 3233 4129 
Q 3647 3509 3647 2328 
Q 3647 1150 3233 529 
Q 2819 -91 2034 -91 
Q 1250 -91 836 529 
Q 422 1150 422 2328 
Q 422 3509 836 4129 
Q 1250 4750 2034 4750 
z
" transform="scale(0.015625)"/>
       </defs>
       <use xlink:href="#DejaVuSans-30"/>
      </g>
     </g>
    </g>
    <g id="xtick_2">
     <g id="line2d_3">
      <path d="M 105.664625 189.559219 
L 105.664625 10.999219 
" clip-path="url(#pfc07ec657d)" style="fill: none; stroke: #b0b0b0; stroke-width: 0.8; stroke-linecap: square"/>
     </g>
     <g id="line2d_4">
      <g>
       <use xlink:href="#me1f7f708bc" x="105.664625" y="189.559219" style="stroke: #000000; stroke-width: 0.8"/>
      </g>
     </g>
     <g id="text_2">
      <!-- 2 -->
      <g transform="translate(102.483375 204.157656)scale(0.1 -0.1)">
       <defs>
        <path id="DejaVuSans-32" d="M 1228 531 
L 3431 531 
L 3431 0 
L 469 0 
L 469 531 
Q 828 903 1448 1529 
Q 2069 2156 2228 2338 
Q 2531 2678 2651 2914 
Q 2772 3150 2772 3378 
Q 2772 3750 2511 3984 
Q 2250 4219 1831 4219 
Q 1534 4219 1204 4116 
Q 875 4013 500 3803 
L 500 4441 
Q 881 4594 1212 4672 
Q 1544 4750 1819 4750 
Q 2544 4750 2975 4387 
Q 3406 4025 3406 3419 
Q 3406 3131 3298 2873 
Q 3191 2616 2906 2266 
Q 2828 2175 2409 1742 
Q 1991 1309 1228 531 
z
" transform="scale(0.015625)"/>
       </defs>
       <use xlink:href="#DejaVuSans-32"/>
      </g>
     </g>
    </g>
    <g id="xtick_3">
     <g id="line2d_5">
      <path d="M 177.088625 189.559219 
L 177.088625 10.999219 
" clip-path="url(#pfc07ec657d)" style="fill: none; stroke: #b0b0b0; stroke-width: 0.8; stroke-linecap: square"/>
     </g>
     <g id="line2d_6">
      <g>
       <use xlink:href="#me1f7f708bc" x="177.088625" y="189.559219" style="stroke: #000000; stroke-width: 0.8"/>
      </g>
     </g>
     <g id="text_3">
      <!-- 4 -->
      <g transform="translate(173.907375 204.157656)scale(0.1 -0.1)">
       <defs>
        <path id="DejaVuSans-34" d="M 2419 4116 
L 825 1625 
L 2419 1625 
L 2419 4116 
z
M 2253 4666 
L 3047 4666 
L 3047 1625 
L 3713 1625 
L 3713 1100 
L 3047 1100 
L 3047 0 
L 2419 0 
L 2419 1100 
L 313 1100 
L 313 1709 
L 2253 4666 
z
" transform="scale(0.015625)"/>
       </defs>
       <use xlink:href="#DejaVuSans-34"/>
      </g>
     </g>
    </g>
    <g id="xtick_4">
     <g id="line2d_7">
      <path d="M 248.512625 189.559219 
L 248.512625 10.999219 
" clip-path="url(#pfc07ec657d)" style="fill: none; stroke: #b0b0b0; stroke-width: 0.8; stroke-linecap: square"/>
     </g>
     <g id="line2d_8">
      <g>
       <use xlink:href="#me1f7f708bc" x="248.512625" y="189.559219" style="stroke: #000000; stroke-width: 0.8"/>
      </g>
     </g>
     <g id="text_4">
      <!-- 6 -->
      <g transform="translate(245.331375 204.157656)scale(0.1 -0.1)">
       <defs>
        <path id="DejaVuSans-36" d="M 2113 2584 
Q 1688 2584 1439 2293 
Q 1191 2003 1191 1497 
Q 1191 994 1439 701 
Q 1688 409 2113 409 
Q 2538 409 2786 701 
Q 3034 994 3034 1497 
Q 3034 2003 2786 2293 
Q 2538 2584 2113 2584 
z
M 3366 4563 
L 3366 3988 
Q 3128 4100 2886 4159 
Q 2644 4219 2406 4219 
Q 1781 4219 1451 3797 
Q 1122 3375 1075 2522 
Q 1259 2794 1537 2939 
Q 1816 3084 2150 3084 
Q 2853 3084 3261 2657 
Q 3669 2231 3669 1497 
Q 3669 778 3244 343 
Q 2819 -91 2113 -91 
Q 1303 -91 875 529 
Q 447 1150 447 2328 
Q 447 3434 972 4092 
Q 1497 4750 2381 4750 
Q 2619 4750 2861 4703 
Q 3103 4656 3366 4563 
z
" transform="scale(0.015625)"/>
       </defs>
       <use xlink:href="#DejaVuSans-36"/>
      </g>
     </g>
    </g>
    <g id="xtick_5">
     <g id="line2d_9">
      <path d="M 319.936625 189.559219 
L 319.936625 10.999219 
" clip-path="url(#pfc07ec657d)" style="fill: none; stroke: #b0b0b0; stroke-width: 0.8; stroke-linecap: square"/>
     </g>
     <g id="line2d_10">
      <g>
       <use xlink:href="#me1f7f708bc" x="319.936625" y="189.559219" style="stroke: #000000; stroke-width: 0.8"/>
      </g>
     </g>
     <g id="text_5">
      <!-- 8 -->
      <g transform="translate(316.755375 204.157656)scale(0.1 -0.1)">
       <defs>
        <path id="DejaVuSans-38" d="M 2034 2216 
Q 1584 2216 1326 1975 
Q 1069 1734 1069 1313 
Q 1069 891 1326 650 
Q 1584 409 2034 409 
Q 2484 409 2743 651 
Q 3003 894 3003 1313 
Q 3003 1734 2745 1975 
Q 2488 2216 2034 2216 
z
M 1403 2484 
Q 997 2584 770 2862 
Q 544 3141 544 3541 
Q 544 4100 942 4425 
Q 1341 4750 2034 4750 
Q 2731 4750 3128 4425 
Q 3525 4100 3525 3541 
Q 3525 3141 3298 2862 
Q 3072 2584 2669 2484 
Q 3125 2378 3379 2068 
Q 3634 1759 3634 1313 
Q 3634 634 3220 271 
Q 2806 -91 2034 -91 
Q 1263 -91 848 271 
Q 434 634 434 1313 
Q 434 1759 690 2068 
Q 947 2378 1403 2484 
z
M 1172 3481 
Q 1172 3119 1398 2916 
Q 1625 2713 2034 2713 
Q 2441 2713 2670 2916 
Q 2900 3119 2900 3481 
Q 2900 3844 2670 4047 
Q 2441 4250 2034 4250 
Q 1625 4250 1398 4047 
Q 1172 3844 1172 3481 
z
" transform="scale(0.015625)"/>
       </defs>
       <use xlink:href="#DejaVuSans-38"/>
      </g>
     </g>
    </g>
    <g id="xtick_6">
     <g id="line2d_11">
      <path d="M 391.360625 189.559219 
L 391.360625 10.999219 
" clip-path="url(#pfc07ec657d)" style="fill: none; stroke: #b0b0b0; stroke-width: 0.8; stroke-linecap: square"/>
     </g>
     <g id="line2d_12">
      <g>
       <use xlink:href="#me1f7f708bc" x="391.360625" y="189.559219" style="stroke: #000000; stroke-width: 0.8"/>
      </g>
     </g>
     <g id="text_6">
      <!-- 10 -->
      <g transform="translate(384.998125 204.157656)scale(0.1 -0.1)">
       <defs>
        <path id="DejaVuSans-31" d="M 794 531 
L 1825 531 
L 1825 4091 
L 703 3866 
L 703 4441 
L 1819 4666 
L 2450 4666 
L 2450 531 
L 3481 531 
L 3481 0 
L 794 0 
L 794 531 
z
" transform="scale(0.015625)"/>
       </defs>
       <use xlink:href="#DejaVuSans-31"/>
       <use xlink:href="#DejaVuSans-30" x="63.623047"/>
      </g>
     </g>
    </g>
    <g id="text_7">
     <!-- $v$ -->
     <g transform="translate(209.800625 217.835781)scale(0.1 -0.1)">
      <defs>
       <path id="DejaVuSans-Oblique-76" d="M 459 3500 
L 1069 3500 
L 1581 525 
L 3256 3500 
L 3866 3500 
L 1875 0 
L 1100 0 
L 459 3500 
z
" transform="scale(0.015625)"/>
      </defs>
      <use xlink:href="#DejaVuSans-Oblique-76" transform="translate(0 0.3125)"/>
     </g>
    </g>
   </g>
   <g id="matplotlib.axis_2">
    <g id="ytick_1">
     <g id="line2d_13">
      <path d="M 34.240625 189.559219 
L 391.360625 189.559219 
" clip-path="url(#pfc07ec657d)" style="fill: none; stroke: #b0b0b0; stroke-width: 0.8; stroke-linecap: square"/>
     </g>
     <g id="line2d_14">
      <defs>
       <path id="m99123fca1d" d="M 0 0 
L -3.5 0 
" style="stroke: #000000; stroke-width: 0.8"/>
      </defs>
      <g>
       <use xlink:href="#m99123fca1d" x="34.240625" y="189.559219" style="stroke: #000000; stroke-width: 0.8"/>
      </g>
     </g>
     <g id="text_8">
      <!-- 0 -->
      <g transform="translate(20.878125 193.358437)scale(0.1 -0.1)">
       <use xlink:href="#DejaVuSans-30"/>
      </g>
     </g>
    </g>
    <g id="ytick_2">
     <g id="line2d_15">
      <path d="M 34.240625 153.847219 
L 391.360625 153.847219 
" clip-path="url(#pfc07ec657d)" style="fill: none; stroke: #b0b0b0; stroke-width: 0.8; stroke-linecap: square"/>
     </g>
     <g id="line2d_16">
      <g>
       <use xlink:href="#m99123fca1d" x="34.240625" y="153.847219" style="stroke: #000000; stroke-width: 0.8"/>
      </g>
     </g>
     <g id="text_9">
      <!-- 1 -->
      <g transform="translate(20.878125 157.646437)scale(0.1 -0.1)">
       <use xlink:href="#DejaVuSans-31"/>
      </g>
     </g>
    </g>
    <g id="ytick_3">
     <g id="line2d_17">
      <path d="M 34.240625 118.135219 
L 391.360625 118.135219 
" clip-path="url(#pfc07ec657d)" style="fill: none; stroke: #b0b0b0; stroke-width: 0.8; stroke-linecap: square"/>
     </g>
     <g id="line2d_18">
      <g>
       <use xlink:href="#m99123fca1d" x="34.240625" y="118.135219" style="stroke: #000000; stroke-width: 0.8"/>
      </g>
     </g>
     <g id="text_10">
      <!-- 2 -->
      <g transform="translate(20.878125 121.934437)scale(0.1 -0.1)">
       <use xlink:href="#DejaVuSans-32"/>
      </g>
     </g>
    </g>
    <g id="ytick_4">
     <g id="line2d_19">
      <path d="M 34.240625 82.423219 
L 391.360625 82.423219 
" clip-path="url(#pfc07ec657d)" style="fill: none; stroke: #b0b0b0; stroke-width: 0.8; stroke-linecap: square"/>
     </g>
     <g id="line2d_20">
      <g>
       <use xlink:href="#m99123fca1d" x="34.240625" y="82.423219" style="stroke: #000000; stroke-width: 0.8"/>
      </g>
     </g>
     <g id="text_11">
      <!-- 3 -->
      <g transform="translate(20.878125 86.222437)scale(0.1 -0.1)">
       <defs>
        <path id="DejaVuSans-33" d="M 2597 2516 
Q 3050 2419 3304 2112 
Q 3559 1806 3559 1356 
Q 3559 666 3084 287 
Q 2609 -91 1734 -91 
Q 1441 -91 1130 -33 
Q 819 25 488 141 
L 488 750 
Q 750 597 1062 519 
Q 1375 441 1716 441 
Q 2309 441 2620 675 
Q 2931 909 2931 1356 
Q 2931 1769 2642 2001 
Q 2353 2234 1838 2234 
L 1294 2234 
L 1294 2753 
L 1863 2753 
Q 2328 2753 2575 2939 
Q 2822 3125 2822 3475 
Q 2822 3834 2567 4026 
Q 2313 4219 1838 4219 
Q 1578 4219 1281 4162 
Q 984 4106 628 3988 
L 628 4550 
Q 988 4650 1302 4700 
Q 1616 4750 1894 4750 
Q 2613 4750 3031 4423 
Q 3450 4097 3450 3541 
Q 3450 3153 3228 2886 
Q 3006 2619 2597 2516 
z
" transform="scale(0.015625)"/>
       </defs>
       <use xlink:href="#DejaVuSans-33"/>
      </g>
     </g>
    </g>
    <g id="ytick_5">
     <g id="line2d_21">
      <path d="M 34.240625 46.711219 
L 391.360625 46.711219 
" clip-path="url(#pfc07ec657d)" style="fill: none; stroke: #b0b0b0; stroke-width: 0.8; stroke-linecap: square"/>
     </g>
     <g id="line2d_22">
      <g>
       <use xlink:href="#m99123fca1d" x="34.240625" y="46.711219" style="stroke: #000000; stroke-width: 0.8"/>
      </g>
     </g>
     <g id="text_12">
      <!-- 4 -->
      <g transform="translate(20.878125 50.510437)scale(0.1 -0.1)">
       <use xlink:href="#DejaVuSans-34"/>
      </g>
     </g>
    </g>
    <g id="ytick_6">
     <g id="line2d_23">
      <path d="M 34.240625 10.999219 
L 391.360625 10.999219 
" clip-path="url(#pfc07ec657d)" style="fill: none; stroke: #b0b0b0; stroke-width: 0.8; stroke-linecap: square"/>
     </g>
     <g id="line2d_24">
      <g>
       <use xlink:href="#m99123fca1d" x="34.240625" y="10.999219" style="stroke: #000000; stroke-width: 0.8"/>
      </g>
     </g>
     <g id="text_13">
      <!-- 5 -->
      <g transform="translate(20.878125 14.798437)scale(0.1 -0.1)">
       <defs>
        <path id="DejaVuSans-35" d="M 691 4666 
L 3169 4666 
L 3169 4134 
L 1269 4134 
L 1269 2991 
Q 1406 3038 1543 3061 
Q 1681 3084 1819 3084 
Q 2600 3084 3056 2656 
Q 3513 2228 3513 1497 
Q 3513 744 3044 326 
Q 2575 -91 1722 -91 
Q 1428 -91 1123 -41 
Q 819 9 494 109 
L 494 744 
Q 775 591 1075 516 
Q 1375 441 1709 441 
Q 2250 441 2565 725 
Q 2881 1009 2881 1497 
Q 2881 1984 2565 2268 
Q 2250 2553 1709 2553 
Q 1456 2553 1204 2497 
Q 953 2441 691 2322 
L 691 4666 
z
" transform="scale(0.015625)"/>
       </defs>
       <use xlink:href="#DejaVuSans-35"/>
      </g>
     </g>
    </g>
    <g id="text_14">
     <!-- $p$ -->
     <g transform="translate(14.778125 103.479219)rotate(-90)scale(0.1 -0.1)">
      <defs>
       <path id="DejaVuSans-Oblique-70" d="M 3175 2156 
Q 3175 2616 2975 2859 
Q 2775 3103 2400 3103 
Q 2144 3103 1911 2972 
Q 1678 2841 1497 2591 
Q 1319 2344 1212 1994 
Q 1106 1644 1106 1300 
Q 1106 863 1306 627 
Q 1506 391 1875 391 
Q 2147 391 2380 519 
Q 2613 647 2778 891 
Q 2956 1147 3065 1494 
Q 3175 1841 3175 2156 
z
M 1394 2969 
Q 1625 3272 1939 3428 
Q 2253 3584 2638 3584 
Q 3175 3584 3472 3232 
Q 3769 2881 3769 2247 
Q 3769 1728 3584 1258 
Q 3400 788 3053 416 
Q 2822 169 2531 39 
Q 2241 -91 1919 -91 
Q 1547 -91 1294 64 
Q 1041 219 916 525 
L 556 -1331 
L -19 -1331 
L 922 3500 
L 1497 3500 
L 1394 2969 
z
" transform="scale(0.015625)"/>
      </defs>
      <use xlink:href="#DejaVuSans-Oblique-70"/>
     </g>
    </g>
   </g>
   <g id="PathCollection_3"/>
   <g id="PathCollection_4">
    <path d="M 273.232108 73.227237 
L 273.511025 73.255217 
L 274.559688 73.495219 
L 277.082225 74.332122 
L 278.959117 75.280819 
L 280.653425 76.564076 
L 281.186747 77.066419 
L 282.459834 78.852019 
L 283.26901 80.637619 
L 283.761528 82.423219 
L 284.044427 84.208819 
L 284.199572 85.994419 
L 284.224625 86.482439 
L 284.286696 87.780019 
L 284.36365 89.565619 
L 284.473244 91.351219 
L 284.648112 93.136819 
L 284.911944 94.922419 
L 285.277796 96.708019 
L 285.745872 98.493619 
L 286.301279 100.279219 
L 286.912456 102.064819 
L 287.531093 103.850419 
L 287.795825 104.687701 
L 288.060362 105.636019 
L 288.442009 107.421619 
L 288.641325 109.207219 
L 288.600179 110.992819 
L 288.270984 112.778419 
L 287.795825 114.065284 
L 287.594653 114.564019 
L 286.460582 116.349619 
L 284.941908 118.135219 
L 284.224625 118.786277 
L 282.857114 119.920819 
L 280.653425 121.430734 
L 280.203755 121.706419 
L 277.082225 123.308348 
L 276.670654 123.492019 
L 273.511025 124.686839 
L 271.640176 125.277619 
L 269.939825 125.737655 
L 266.368625 126.44521 
L 262.797425 126.833319 
L 259.226225 126.770633 
L 255.655025 126.088063 
L 253.66831 125.277619 
L 252.083825 124.332769 
L 251.169387 123.492019 
L 249.860672 121.706419 
L 249.031827 119.920819 
L 248.538907 118.135219 
L 248.512625 117.956551 
L 248.328845 116.349619 
L 248.246565 114.564019 
L 248.240511 112.778419 
L 248.273149 110.992819 
L 248.313515 109.207219 
L 248.336335 107.421619 
L 248.321823 105.636019 
L 248.256045 103.850419 
L 248.131695 102.064819 
L 247.949135 100.279219 
L 247.717461 98.493619 
L 247.455248 96.708019 
L 247.190605 94.922419 
L 246.960139 93.136819 
L 246.806589 91.351219 
L 246.775175 89.565619 
L 246.909072 87.780019 
L 247.244756 85.994419 
L 247.80812 84.208819 
L 248.512625 82.656157 
L 248.646018 82.423219 
L 250.033556 80.637619 
L 251.600527 78.953601 
" clip-path="url(#pfc07ec657d)" style="fill: none; stroke: #bf00bf"/>
   </g>
   <g id="PathCollection_5"/>
   <g id="PathCollection_6">
    <path d="M 34.240625 101.505163 
L 34.851152 100.279219 
L 35.759323 98.493619 
L 36.683421 96.708019 
L 37.62513 94.922419 
L 37.811825 94.579915 
L 38.655953 93.136819 
L 39.721289 91.351219 
L 40.805963 89.565619 
L 41.383025 88.642406 
L 41.971188 87.780019 
L 43.221082 85.994419 
L 44.492386 84.208819 
L 44.954225 83.581059 
L 45.895488 82.423219 
L 47.379959 80.637619 
L 48.525425 79.289978 
L 48.942381 78.852019 
L 50.697058 77.066419 
L 52.096625 75.669028 
L 52.537163 75.280819 
L 54.629352 73.495219 
L 55.667825 72.631773 
L 56.93707 71.709619 
L 59.239025 70.077091 
L 59.489559 69.924019 
L 62.513943 68.138419 
L 62.810225 67.969821 
L 66.141545 66.352819 
L 66.381425 66.241003 
L 67.639709 65.753125 
" clip-path="url(#pfc07ec657d)" style="fill: none; stroke: #bf00bf"/>
    <path d="M 91.149157 61.958764 
L 91.379825 61.963661 
L 94.951025 62.25451 
L 98.522225 62.76695 
L 98.590397 62.781619 
L 102.093425 63.587547 
L 105.288551 64.567219 
L 105.664625 64.689237 
L 109.235825 66.203476 
L 109.509616 66.352819 
L 112.669332 68.138419 
L 112.807025 68.219185 
L 115.066192 69.924019 
L 116.378225 70.933044 
L 117.163143 71.709619 
L 118.909849 73.495219 
L 119.949425 74.585037 
L 120.462233 75.280819 
L 121.720918 77.066419 
L 122.951901 78.852019 
L 123.520625 79.71285 
L 123.988078 80.637619 
L 124.845401 82.423219 
L 125.670185 84.208819 
L 126.462029 85.994419 
L 127.091825 87.483625 
L 127.186742 87.780019 
L 127.718338 89.565619 
L 128.220209 91.351219 
L 128.692618 93.136819 
L 129.135855 94.922419 
L 129.550231 96.708019 
L 129.936072 98.493619 
L 130.293721 100.279219 
L 130.623529 102.064819 
L 130.663025 102.300023 
L 130.855669 103.850419 
L 131.056566 105.636019 
L 131.23723 107.421619 
L 131.398167 109.207219 
L 131.539854 110.992819 
L 131.662736 112.778419 
L 131.767226 114.564019 
L 131.853703 116.349619 
L 131.922516 118.135219 
L 131.973984 119.920819 
L 132.008397 121.706419 
L 132.026025 123.492019 
L 132.027117 125.277619 
L 132.01191 127.063219 
L 131.980631 128.848819 
L 131.933504 130.634419 
L 131.870754 132.420019 
L 131.792615 134.205619 
L 131.69933 135.991219 
L 131.59116 137.776819 
L 131.468388 139.562419 
L 131.331317 141.348019 
L 131.180279 143.133619 
L 131.015636 144.919219 
L 130.837777 146.704819 
L 130.663025 148.338464 
L 130.641759 148.490419 
L 130.371172 150.276019 
L 130.086517 152.061619 
L 129.788666 153.847219 
L 129.478513 155.632819 
L 129.156974 157.418419 
L 128.824979 159.204019 
L 128.483471 160.989619 
L 128.133405 162.775219 
L 127.77574 164.560819 
L 127.411439 166.346419 
L 127.091825 167.882371 
L 127.025629 168.132019 
L 126.535348 169.917619 
L 126.044049 171.703219 
L 125.552941 173.488819 
L 125.063192 175.274419 
L 124.57593 177.060019 
L 124.092238 178.845619 
L 123.613161 180.631219 
L 123.520625 180.970069 
L 123.027808 182.416819 
L 122.428498 184.202419 
L 121.843827 185.988019 
L 121.274622 187.773619 
L 120.721646 189.559219 
" clip-path="url(#pfc07ec657d)" style="fill: none; stroke: #bf00bf"/>
   </g>
   <g id="patch_7">
    <path d="M 34.240625 189.559219 
L 34.240625 10.999219 
" style="fill: none; stroke: #000000; stroke-width: 0.8; stroke-linejoin: miter; stroke-linecap: square"/>
   </g>
   <g id="patch_8">
    <path d="M 391.360625 189.559219 
L 391.360625 10.999219 
" style="fill: none; stroke: #000000; stroke-width: 0.8; stroke-linejoin: miter; stroke-linecap: square"/>
   </g>
   <g id="patch_9">
    <path d="M 34.240625 189.559219 
L 391.360625 189.559219 
" style="fill: none; stroke: #000000; stroke-width: 0.8; stroke-linejoin: miter; stroke-linecap: square"/>
   </g>
   <g id="patch_10">
    <path d="M 34.240625 10.999219 
L 391.360625 10.999219 
" style="fill: none; stroke: #000000; stroke-width: 0.8; stroke-linejoin: miter; stroke-linecap: square"/>
   </g>
   <g id="text_15">
    <g clip-path="url(#pfc07ec657d)">
     <!-- 0.1 -->
     <g transform="translate(251.474208 77.020238)scale(0.11 -0.11)">
      <defs>
       <path id="DejaVuSans-Bold-30" d="M 2944 2338 
Q 2944 3213 2780 3570 
Q 2616 3928 2228 3928 
Q 1841 3928 1675 3570 
Q 1509 3213 1509 2338 
Q 1509 1453 1675 1090 
Q 1841 728 2228 728 
Q 2613 728 2778 1090 
Q 2944 1453 2944 2338 
z
M 4147 2328 
Q 4147 1169 3647 539 
Q 3147 -91 2228 -91 
Q 1306 -91 806 539 
Q 306 1169 306 2328 
Q 306 3491 806 4120 
Q 1306 4750 2228 4750 
Q 3147 4750 3647 4120 
Q 4147 3491 4147 2328 
z
" transform="scale(0.015625)"/>
       <path id="DejaVuSans-Bold-2e" d="M 653 1209 
L 1778 1209 
L 1778 0 
L 653 0 
L 653 1209 
z
" transform="scale(0.015625)"/>
       <path id="DejaVuSans-Bold-31" d="M 750 831 
L 1813 831 
L 1813 3847 
L 722 3622 
L 722 4441 
L 1806 4666 
L 2950 4666 
L 2950 831 
L 4013 831 
L 4013 0 
L 750 0 
L 750 831 
z
" transform="scale(0.015625)"/>
      </defs>
      <use xlink:href="#DejaVuSans-Bold-30"/>
      <use xlink:href="#DejaVuSans-Bold-2e" x="69.580078"/>
      <use xlink:href="#DejaVuSans-Bold-31" x="107.568359"/>
     </g>
    </g>
   </g>
   <g id="text_16">
    <g clip-path="url(#pfc07ec657d)">
     <!-- 1.0 -->
     <g transform="translate(69.211662 65.672231)scale(0.11 -0.11)">
      <use xlink:href="#DejaVuSans-Bold-31"/>
      <use xlink:href="#DejaVuSans-Bold-2e" x="69.580078"/>
      <use xlink:href="#DejaVuSans-Bold-30" x="107.568359"/>
     </g>
    </g>
   </g>
   <g id="legend_1">
    <g id="patch_11">
     <path d="M 317.693438 184.559219 
L 384.360625 184.559219 
Q 386.360625 184.559219 386.360625 182.559219 
L 386.360625 124.846719 
Q 386.360625 122.846719 384.360625 122.846719 
L 317.693438 122.846719 
Q 315.693438 122.846719 315.693438 124.846719 
L 315.693438 182.559219 
Q 315.693438 184.559219 317.693438 184.559219 
z
" style="fill: #ffffff; opacity: 0.8; stroke: #cccccc; stroke-linejoin: miter"/>
    </g>
    <g id="patch_12">
     <path d="M 319.693438 134.445156 
L 339.693438 134.445156 
L 339.693438 127.445156 
L 319.693438 127.445156 
z
" style="fill: #0000ff; opacity: 0.45; stroke: #0000ff; stroke-linejoin: miter"/>
    </g>
    <g id="text_17">
     <!-- B0 -->
     <g transform="translate(347.693438 134.445156)scale(0.1 -0.1)">
      <defs>
       <path id="DejaVuSans-42" d="M 1259 2228 
L 1259 519 
L 2272 519 
Q 2781 519 3026 730 
Q 3272 941 3272 1375 
Q 3272 1813 3026 2020 
Q 2781 2228 2272 2228 
L 1259 2228 
z
M 1259 4147 
L 1259 2741 
L 2194 2741 
Q 2656 2741 2882 2914 
Q 3109 3088 3109 3444 
Q 3109 3797 2882 3972 
Q 2656 4147 2194 4147 
L 1259 4147 
z
M 628 4666 
L 2241 4666 
Q 2963 4666 3353 4366 
Q 3744 4066 3744 3513 
Q 3744 3084 3544 2831 
Q 3344 2578 2956 2516 
Q 3422 2416 3680 2098 
Q 3938 1781 3938 1306 
Q 3938 681 3513 340 
Q 3088 0 2303 0 
L 628 0 
L 628 4666 
z
" transform="scale(0.015625)"/>
      </defs>
      <use xlink:href="#DejaVuSans-42"/>
      <use xlink:href="#DejaVuSans-30" x="68.603516"/>
     </g>
    </g>
    <g id="patch_13">
     <path d="M 319.693438 149.123281 
L 339.693438 149.123281 
L 339.693438 142.123281 
L 319.693438 142.123281 
z
" style="fill: #ffa500; opacity: 0.5; stroke: #ffa500; stroke-linejoin: miter"/>
    </g>
    <g id="text_18">
     <!-- B1 -->
     <g transform="translate(347.693438 149.123281)scale(0.1 -0.1)">
      <use xlink:href="#DejaVuSans-42"/>
      <use xlink:href="#DejaVuSans-31" x="68.603516"/>
     </g>
    </g>
    <g id="patch_14">
     <path d="M 319.693438 163.801406 
L 339.693438 163.801406 
L 339.693438 156.801406 
L 319.693438 156.801406 
z
" style="fill: #90ee90; stroke: #90ee90; stroke-linejoin: miter"/>
    </g>
    <g id="text_19">
     <!-- Initial -->
     <g transform="translate(347.693438 163.801406)scale(0.1 -0.1)">
      <defs>
       <path id="DejaVuSans-49" d="M 628 4666 
L 1259 4666 
L 1259 0 
L 628 0 
L 628 4666 
z
" transform="scale(0.015625)"/>
       <path id="DejaVuSans-6e" d="M 3513 2113 
L 3513 0 
L 2938 0 
L 2938 2094 
Q 2938 2591 2744 2837 
Q 2550 3084 2163 3084 
Q 1697 3084 1428 2787 
Q 1159 2491 1159 1978 
L 1159 0 
L 581 0 
L 581 3500 
L 1159 3500 
L 1159 2956 
Q 1366 3272 1645 3428 
Q 1925 3584 2291 3584 
Q 2894 3584 3203 3211 
Q 3513 2838 3513 2113 
z
" transform="scale(0.015625)"/>
       <path id="DejaVuSans-69" d="M 603 3500 
L 1178 3500 
L 1178 0 
L 603 0 
L 603 3500 
z
M 603 4863 
L 1178 4863 
L 1178 4134 
L 603 4134 
L 603 4863 
z
" transform="scale(0.015625)"/>
       <path id="DejaVuSans-74" d="M 1172 4494 
L 1172 3500 
L 2356 3500 
L 2356 3053 
L 1172 3053 
L 1172 1153 
Q 1172 725 1289 603 
Q 1406 481 1766 481 
L 2356 481 
L 2356 0 
L 1766 0 
Q 1100 0 847 248 
Q 594 497 594 1153 
L 594 3053 
L 172 3053 
L 172 3500 
L 594 3500 
L 594 4494 
L 1172 4494 
z
" transform="scale(0.015625)"/>
       <path id="DejaVuSans-61" d="M 2194 1759 
Q 1497 1759 1228 1600 
Q 959 1441 959 1056 
Q 959 750 1161 570 
Q 1363 391 1709 391 
Q 2188 391 2477 730 
Q 2766 1069 2766 1631 
L 2766 1759 
L 2194 1759 
z
M 3341 1997 
L 3341 0 
L 2766 0 
L 2766 531 
Q 2569 213 2275 61 
Q 1981 -91 1556 -91 
Q 1019 -91 701 211 
Q 384 513 384 1019 
Q 384 1609 779 1909 
Q 1175 2209 1959 2209 
L 2766 2209 
L 2766 2266 
Q 2766 2663 2505 2880 
Q 2244 3097 1772 3097 
Q 1472 3097 1187 3025 
Q 903 2953 641 2809 
L 641 3341 
Q 956 3463 1253 3523 
Q 1550 3584 1831 3584 
Q 2591 3584 2966 3190 
Q 3341 2797 3341 1997 
z
" transform="scale(0.015625)"/>
       <path id="DejaVuSans-6c" d="M 603 4863 
L 1178 4863 
L 1178 0 
L 603 0 
L 603 4863 
z
" transform="scale(0.015625)"/>
      </defs>
      <use xlink:href="#DejaVuSans-49"/>
      <use xlink:href="#DejaVuSans-6e" x="29.492188"/>
      <use xlink:href="#DejaVuSans-69" x="92.871094"/>
      <use xlink:href="#DejaVuSans-74" x="120.654297"/>
      <use xlink:href="#DejaVuSans-69" x="159.863281"/>
      <use xlink:href="#DejaVuSans-61" x="187.646484"/>
      <use xlink:href="#DejaVuSans-6c" x="248.925781"/>
     </g>
    </g>
    <g id="patch_15">
     <path d="M 319.693438 178.479531 
L 339.693438 178.479531 
L 339.693438 171.479531 
L 319.693438 171.479531 
z
" style="fill: #ff0000; opacity: 0.9; stroke: #ff0000; stroke-linejoin: miter"/>
    </g>
    <g id="text_20">
     <!-- Unsafe -->
     <g transform="translate(347.693438 178.479531)scale(0.1 -0.1)">
      <defs>
       <path id="DejaVuSans-55" d="M 556 4666 
L 1191 4666 
L 1191 1831 
Q 1191 1081 1462 751 
Q 1734 422 2344 422 
Q 2950 422 3222 751 
Q 3494 1081 3494 1831 
L 3494 4666 
L 4128 4666 
L 4128 1753 
Q 4128 841 3676 375 
Q 3225 -91 2344 -91 
Q 1459 -91 1007 375 
Q 556 841 556 1753 
L 556 4666 
z
" transform="scale(0.015625)"/>
       <path id="DejaVuSans-73" d="M 2834 3397 
L 2834 2853 
Q 2591 2978 2328 3040 
Q 2066 3103 1784 3103 
Q 1356 3103 1142 2972 
Q 928 2841 928 2578 
Q 928 2378 1081 2264 
Q 1234 2150 1697 2047 
L 1894 2003 
Q 2506 1872 2764 1633 
Q 3022 1394 3022 966 
Q 3022 478 2636 193 
Q 2250 -91 1575 -91 
Q 1294 -91 989 -36 
Q 684 19 347 128 
L 347 722 
Q 666 556 975 473 
Q 1284 391 1588 391 
Q 1994 391 2212 530 
Q 2431 669 2431 922 
Q 2431 1156 2273 1281 
Q 2116 1406 1581 1522 
L 1381 1569 
Q 847 1681 609 1914 
Q 372 2147 372 2553 
Q 372 3047 722 3315 
Q 1072 3584 1716 3584 
Q 2034 3584 2315 3537 
Q 2597 3491 2834 3397 
z
" transform="scale(0.015625)"/>
       <path id="DejaVuSans-66" d="M 2375 4863 
L 2375 4384 
L 1825 4384 
Q 1516 4384 1395 4259 
Q 1275 4134 1275 3809 
L 1275 3500 
L 2222 3500 
L 2222 3053 
L 1275 3053 
L 1275 0 
L 697 0 
L 697 3053 
L 147 3053 
L 147 3500 
L 697 3500 
L 697 3744 
Q 697 4328 969 4595 
Q 1241 4863 1831 4863 
L 2375 4863 
z
" transform="scale(0.015625)"/>
       <path id="DejaVuSans-65" d="M 3597 1894 
L 3597 1613 
L 953 1613 
Q 991 1019 1311 708 
Q 1631 397 2203 397 
Q 2534 397 2845 478 
Q 3156 559 3463 722 
L 3463 178 
Q 3153 47 2828 -22 
Q 2503 -91 2169 -91 
Q 1331 -91 842 396 
Q 353 884 353 1716 
Q 353 2575 817 3079 
Q 1281 3584 2069 3584 
Q 2775 3584 3186 3129 
Q 3597 2675 3597 1894 
z
M 3022 2063 
Q 3016 2534 2758 2815 
Q 2500 3097 2075 3097 
Q 1594 3097 1305 2825 
Q 1016 2553 972 2059 
L 3022 2063 
z
" transform="scale(0.015625)"/>
      </defs>
      <use xlink:href="#DejaVuSans-55"/>
      <use xlink:href="#DejaVuSans-6e" x="73.193359"/>
      <use xlink:href="#DejaVuSans-73" x="136.572266"/>
      <use xlink:href="#DejaVuSans-61" x="188.671875"/>
      <use xlink:href="#DejaVuSans-66" x="249.951172"/>
      <use xlink:href="#DejaVuSans-65" x="285.15625"/>
     </g>
    </g>
   </g>
  </g>
 </g>
 <defs>
  <clipPath id="pfc07ec657d">
   <rect x="34.240625" y="10.999219" width="357.12" height="178.56"/>
  </clipPath>
 </defs>
</svg>
