<?xml version="1.0" encoding="utf-8" standalone="no"?>
<!DOCTYPE svg PUBLIC "-//W3C//DTD SVG 1.1//EN"
  "http://www.w3.org/Graphics/SVG/1.1/DTD/svg11.dtd">
<svg xmlns:xlink="http://www.w3.org/1999/xlink" width="394.423125pt" height="314.667469pt" viewBox="0 0 394.423125 314.667469" xmlns="http://www.w3.org/2000/svg" version="1.1">
 <metadata>
  <rdf:RDF xmlns:dc="http://purl.org/dc/elements/1.1/" xmlns:cc="http://creativecommons.org/ns#" xmlns:rdf="http://www.w3.org/1999/02/22-rdf-syntax-ns#">
   <cc:Work>
    <dc:type rdf:resource="http://purl.org/dc/dcmitype/StillImage"/>
    <dc:date>2025-02-07T08:42:51.362202</dc:date>
    <dc:format>image/svg+xml</dc:format>
    <dc:creator>
     <cc:Agent>
      <dc:title>Matplotlib v3.5.3, https://matplotlib.org/</dc:title>
     </cc:Agent>
    </dc:creator>
   </cc:Work>
  </rdf:RDF>
 </metadata>
 <defs>
  <style type="text/css">*{stroke-linejoin: round; stroke-linecap: butt}</style>
 </defs>
 <g id="figure_1">
  <g id="patch_1">
   <path d="M 0 314.667469 
L 394.423125 314.667469 
L 394.423125 0 
L 0 0 
z
" style="fill: #ffffff"/>
  </g>
  <g id="axes_1">
   <g id="patch_2">
    <path d="M 30.103125 277.111219 
L 387.223125 277.111219 
L 387.223125 10.999219 
L 30.103125 10.999219 
z
" style="fill: #ffffff"/>
   </g>
   <g id="PolyCollection_1">
    <path d="M 323.054827 10.999219 
L 323.054827 277.111219 
L 325.233717 277.111219 
L 327.412606 277.111219 
L 329.591496 277.111219 
L 331.770386 277.111219 
L 333.949275 277.111219 
L 336.128165 277.111219 
L 338.307054 277.111219 
L 340.485944 277.111219 
L 342.664833 277.111219 
L 344.843723 277.111219 
L 347.022612 277.111219 
L 349.201502 277.111219 
L 351.380392 277.111219 
L 353.559281 277.111219 
L 353.559281 10.999219 
L 353.559281 10.999219 
L 351.380392 10.999219 
L 349.201502 10.999219 
L 347.022612 10.999219 
L 344.843723 10.999219 
L 342.664833 10.999219 
L 340.485944 10.999219 
L 338.307054 10.999219 
L 336.128165 10.999219 
L 333.949275 10.999219 
L 331.770386 10.999219 
L 329.591496 10.999219 
L 327.412606 10.999219 
L 325.233717 10.999219 
L 323.054827 10.999219 
z
" clip-path="url(#p0e87d5d694)" style="fill: #800080; fill-opacity: 0.2"/>
   </g>
   <g id="PolyCollection_2">
    <path d="M 46.335852 10.999219 
L 46.335852 277.111219 
L 48.514742 277.111219 
L 50.693631 277.111219 
L 52.872521 277.111219 
L 55.051411 277.111219 
L 57.2303 277.111219 
L 59.40919 277.111219 
L 61.588079 277.111219 
L 63.766969 277.111219 
L 65.945858 277.111219 
L 68.124748 277.111219 
L 70.303638 277.111219 
L 72.482527 277.111219 
L 74.661417 277.111219 
L 76.840306 277.111219 
L 79.019196 277.111219 
L 81.198085 277.111219 
L 83.376975 277.111219 
L 85.555864 277.111219 
L 87.734754 277.111219 
L 89.913644 277.111219 
L 92.092533 277.111219 
L 94.271423 277.111219 
L 96.450312 277.111219 
L 98.629202 277.111219 
L 100.808091 277.111219 
L 102.986981 277.111219 
L 105.165871 277.111219 
L 107.34476 277.111219 
L 109.52365 277.111219 
L 111.702539 277.111219 
L 113.881429 277.111219 
L 116.060318 277.111219 
L 118.239208 277.111219 
L 120.418098 277.111219 
L 122.596987 277.111219 
L 124.775877 277.111219 
L 126.954766 277.111219 
L 129.133656 277.111219 
L 131.312545 277.111219 
L 133.491435 277.111219 
L 135.670325 277.111219 
L 137.849214 277.111219 
L 140.028104 277.111219 
L 142.206993 277.111219 
L 144.385883 277.111219 
L 146.564772 277.111219 
L 148.743662 277.111219 
L 150.922551 277.111219 
L 153.101441 277.111219 
L 155.280331 277.111219 
L 157.45922 277.111219 
L 159.63811 277.111219 
L 161.816999 277.111219 
L 163.995889 277.111219 
L 166.174778 277.111219 
L 168.353668 277.111219 
L 170.532558 277.111219 
L 172.711447 277.111219 
L 174.890337 277.111219 
L 177.069226 277.111219 
L 179.248116 277.111219 
L 181.427005 277.111219 
L 183.605895 277.111219 
L 185.784785 277.111219 
L 187.963674 277.111219 
L 190.142564 277.111219 
L 192.321453 277.111219 
L 194.500343 277.111219 
L 196.679232 277.111219 
L 198.858122 277.111219 
L 201.037012 277.111219 
L 203.215901 277.111219 
L 205.394791 277.111219 
L 207.57368 277.111219 
L 209.75257 277.111219 
L 211.931459 277.111219 
L 214.110349 277.111219 
L 216.289238 277.111219 
L 218.468128 277.111219 
L 220.647018 277.111219 
L 222.825907 277.111219 
L 225.004797 277.111219 
L 227.183686 277.111219 
L 229.362576 277.111219 
L 231.541465 277.111219 
L 233.720355 277.111219 
L 235.899245 277.111219 
L 238.078134 277.111219 
L 238.078134 10.999219 
L 238.078134 10.999219 
L 235.899245 10.999219 
L 233.720355 10.999219 
L 231.541465 10.999219 
L 229.362576 10.999219 
L 227.183686 10.999219 
L 225.004797 10.999219 
L 222.825907 10.999219 
L 220.647018 10.999219 
L 218.468128 10.999219 
L 216.289238 10.999219 
L 214.110349 10.999219 
L 211.931459 10.999219 
L 209.75257 10.999219 
L 207.57368 10.999219 
L 205.394791 10.999219 
L 203.215901 10.999219 
L 201.037012 10.999219 
L 198.858122 10.999219 
L 196.679232 10.999219 
L 194.500343 10.999219 
L 192.321453 10.999219 
L 190.142564 10.999219 
L 187.963674 10.999219 
L 185.784785 10.999219 
L 183.605895 10.999219 
L 181.427005 10.999219 
L 179.248116 10.999219 
L 177.069226 10.999219 
L 174.890337 10.999219 
L 172.711447 10.999219 
L 170.532558 10.999219 
L 168.353668 10.999219 
L 166.174778 10.999219 
L 163.995889 10.999219 
L 161.816999 10.999219 
L 159.63811 10.999219 
L 157.45922 10.999219 
L 155.280331 10.999219 
L 153.101441 10.999219 
L 150.922551 10.999219 
L 148.743662 10.999219 
L 146.564772 10.999219 
L 144.385883 10.999219 
L 142.206993 10.999219 
L 140.028104 10.999219 
L 137.849214 10.999219 
L 135.670325 10.999219 
L 133.491435 10.999219 
L 131.312545 10.999219 
L 129.133656 10.999219 
L 126.954766 10.999219 
L 124.775877 10.999219 
L 122.596987 10.999219 
L 120.418098 10.999219 
L 118.239208 10.999219 
L 116.060318 10.999219 
L 113.881429 10.999219 
L 111.702539 10.999219 
L 109.52365 10.999219 
L 107.34476 10.999219 
L 105.165871 10.999219 
L 102.986981 10.999219 
L 100.808091 10.999219 
L 98.629202 10.999219 
L 96.450312 10.999219 
L 94.271423 10.999219 
L 92.092533 10.999219 
L 89.913644 10.999219 
L 87.734754 10.999219 
L 85.555864 10.999219 
L 83.376975 10.999219 
L 81.198085 10.999219 
L 79.019196 10.999219 
L 76.840306 10.999219 
L 74.661417 10.999219 
L 72.482527 10.999219 
L 70.303638 10.999219 
L 68.124748 10.999219 
L 65.945858 10.999219 
L 63.766969 10.999219 
L 61.588079 10.999219 
L 59.40919 10.999219 
L 57.2303 10.999219 
L 55.051411 10.999219 
L 52.872521 10.999219 
L 50.693631 10.999219 
L 48.514742 10.999219 
L 46.335852 10.999219 
z
" clip-path="url(#p0e87d5d694)" style="fill: #ffa500; fill-opacity: 0.2"/>
   </g>
   <g id="PolyCollection_3">
    <path d="M 323.054827 -179126.972717 
L 323.054827 343.639219 
L 325.233717 343.639219 
L 327.412606 343.639219 
L 329.591496 343.639219 
L 331.770386 343.639219 
L 333.949275 343.639219 
L 336.128165 343.639219 
L 338.307054 343.639219 
L 340.485944 343.639219 
L 342.664833 343.639219 
L 344.843723 343.639219 
L 347.022612 343.639219 
L 349.201502 343.639219 
L 351.380392 343.639219 
L 353.559281 343.639219 
L 353.559281 -179126.972717 
L 353.559281 -179126.972717 
L 351.380392 -179126.972717 
L 349.201502 -179126.972717 
L 347.022612 -179126.972717 
L 344.843723 -179126.972717 
L 342.664833 -179126.972717 
L 340.485944 -179126.972717 
L 338.307054 -179126.972717 
L 336.128165 -179126.972717 
L 333.949275 -179126.972717 
L 331.770386 -179126.972717 
L 329.591496 -179126.972717 
L 327.412606 -179126.972717 
L 325.233717 -179126.972717 
L 323.054827 -179126.972717 
z
" clip-path="url(#p0e87d5d694)" style="fill: #008000; fill-opacity: 0.3"/>
   </g>
   <g id="PolyCollection_4">
    <path d="M 242.435913 -179126.972717 
L 242.435913 343.639219 
L 244.614803 343.639219 
L 246.793692 343.639219 
L 248.972582 343.639219 
L 251.151472 343.639219 
L 253.330361 343.639219 
L 255.509251 343.639219 
L 257.68814 343.639219 
L 259.86703 343.639219 
L 262.045919 343.639219 
L 264.224809 343.639219 
L 266.403699 343.639219 
L 268.582588 343.639219 
L 270.761478 343.639219 
L 272.940367 343.639219 
L 272.940367 -179126.972717 
L 272.940367 -179126.972717 
L 270.761478 -179126.972717 
L 268.582588 -179126.972717 
L 266.403699 -179126.972717 
L 264.224809 -179126.972717 
L 262.045919 -179126.972717 
L 259.86703 -179126.972717 
L 257.68814 -179126.972717 
L 255.509251 -179126.972717 
L 253.330361 -179126.972717 
L 251.151472 -179126.972717 
L 248.972582 -179126.972717 
L 246.793692 -179126.972717 
L 244.614803 -179126.972717 
L 242.435913 -179126.972717 
z
" clip-path="url(#p0e87d5d694)" style="fill: #ff0000; fill-opacity: 0.3"/>
   </g>
   <g id="matplotlib.axis_1">
    <g id="xtick_1">
     <g id="line2d_1">
      <path d="M 46.335852 277.111219 
L 46.335852 10.999219 
" clip-path="url(#p0e87d5d694)" style="fill: none; stroke: #b0b0b0; stroke-width: 0.8; stroke-linecap: square"/>
     </g>
     <g id="line2d_2">
      <defs>
       <path id="m9dae443a4d" d="M 0 0 
L 0 3.5 
" style="stroke: #000000; stroke-width: 0.8"/>
      </defs>
      <g>
       <use xlink:href="#m9dae443a4d" x="46.335852" y="277.111219" style="stroke: #000000; stroke-width: 0.8"/>
      </g>
     </g>
     <g id="text_1">
      <!-- 0.0 -->
      <g transform="translate(38.38429 291.709656)scale(0.1 -0.1)">
       <defs>
        <path id="DejaVuSans-30" d="M 2034 4250 
Q 1547 4250 1301 3770 
Q 1056 3291 1056 2328 
Q 1056 1369 1301 889 
Q 1547 409 2034 409 
Q 2525 409 2770 889 
Q 3016 1369 3016 2328 
Q 3016 3291 2770 3770 
Q 2525 4250 2034 4250 
z
M 2034 4750 
Q 2819 4750 3233 4129 
Q 3647 3509 3647 2328 
Q 3647 1150 3233 529 
Q 2819 -91 2034 -91 
Q 1250 -91 836 529 
Q 422 1150 422 2328 
Q 422 3509 836 4129 
Q 1250 4750 2034 4750 
z
" transform="scale(0.015625)"/>
        <path id="DejaVuSans-2e" d="M 684 794 
L 1344 794 
L 1344 0 
L 684 0 
L 684 794 
z
" transform="scale(0.015625)"/>
       </defs>
       <use xlink:href="#DejaVuSans-30"/>
       <use xlink:href="#DejaVuSans-2e" x="63.623047"/>
       <use xlink:href="#DejaVuSans-30" x="95.410156"/>
      </g>
     </g>
    </g>
    <g id="xtick_2">
     <g id="line2d_3">
      <path d="M 111.266761 277.111219 
L 111.266761 10.999219 
" clip-path="url(#p0e87d5d694)" style="fill: none; stroke: #b0b0b0; stroke-width: 0.8; stroke-linecap: square"/>
     </g>
     <g id="line2d_4">
      <g>
       <use xlink:href="#m9dae443a4d" x="111.266761" y="277.111219" style="stroke: #000000; stroke-width: 0.8"/>
      </g>
     </g>
     <g id="text_2">
      <!-- 0.2 -->
      <g transform="translate(103.315199 291.709656)scale(0.1 -0.1)">
       <defs>
        <path id="DejaVuSans-32" d="M 1228 531 
L 3431 531 
L 3431 0 
L 469 0 
L 469 531 
Q 828 903 1448 1529 
Q 2069 2156 2228 2338 
Q 2531 2678 2651 2914 
Q 2772 3150 2772 3378 
Q 2772 3750 2511 3984 
Q 2250 4219 1831 4219 
Q 1534 4219 1204 4116 
Q 875 4013 500 3803 
L 500 4441 
Q 881 4594 1212 4672 
Q 1544 4750 1819 4750 
Q 2544 4750 2975 4387 
Q 3406 4025 3406 3419 
Q 3406 3131 3298 2873 
Q 3191 2616 2906 2266 
Q 2828 2175 2409 1742 
Q 1991 1309 1228 531 
z
" transform="scale(0.015625)"/>
       </defs>
       <use xlink:href="#DejaVuSans-30"/>
       <use xlink:href="#DejaVuSans-2e" x="63.623047"/>
       <use xlink:href="#DejaVuSans-32" x="95.410156"/>
      </g>
     </g>
    </g>
    <g id="xtick_3">
     <g id="line2d_5">
      <path d="M 176.19767 277.111219 
L 176.19767 10.999219 
" clip-path="url(#p0e87d5d694)" style="fill: none; stroke: #b0b0b0; stroke-width: 0.8; stroke-linecap: square"/>
     </g>
     <g id="line2d_6">
      <g>
       <use xlink:href="#m9dae443a4d" x="176.19767" y="277.111219" style="stroke: #000000; stroke-width: 0.8"/>
      </g>
     </g>
     <g id="text_3">
      <!-- 0.4 -->
      <g transform="translate(168.246108 291.709656)scale(0.1 -0.1)">
       <defs>
        <path id="DejaVuSans-34" d="M 2419 4116 
L 825 1625 
L 2419 1625 
L 2419 4116 
z
M 2253 4666 
L 3047 4666 
L 3047 1625 
L 3713 1625 
L 3713 1100 
L 3047 1100 
L 3047 0 
L 2419 0 
L 2419 1100 
L 313 1100 
L 313 1709 
L 2253 4666 
z
" transform="scale(0.015625)"/>
       </defs>
       <use xlink:href="#DejaVuSans-30"/>
       <use xlink:href="#DejaVuSans-2e" x="63.623047"/>
       <use xlink:href="#DejaVuSans-34" x="95.410156"/>
      </g>
     </g>
    </g>
    <g id="xtick_4">
     <g id="line2d_7">
      <path d="M 241.12858 277.111219 
L 241.12858 10.999219 
" clip-path="url(#p0e87d5d694)" style="fill: none; stroke: #b0b0b0; stroke-width: 0.8; stroke-linecap: square"/>
     </g>
     <g id="line2d_8">
      <g>
       <use xlink:href="#m9dae443a4d" x="241.12858" y="277.111219" style="stroke: #000000; stroke-width: 0.8"/>
      </g>
     </g>
     <g id="text_4">
      <!-- 0.6 -->
      <g transform="translate(233.177017 291.709656)scale(0.1 -0.1)">
       <defs>
        <path id="DejaVuSans-36" d="M 2113 2584 
Q 1688 2584 1439 2293 
Q 1191 2003 1191 1497 
Q 1191 994 1439 701 
Q 1688 409 2113 409 
Q 2538 409 2786 701 
Q 3034 994 3034 1497 
Q 3034 2003 2786 2293 
Q 2538 2584 2113 2584 
z
M 3366 4563 
L 3366 3988 
Q 3128 4100 2886 4159 
Q 2644 4219 2406 4219 
Q 1781 4219 1451 3797 
Q 1122 3375 1075 2522 
Q 1259 2794 1537 2939 
Q 1816 3084 2150 3084 
Q 2853 3084 3261 2657 
Q 3669 2231 3669 1497 
Q 3669 778 3244 343 
Q 2819 -91 2113 -91 
Q 1303 -91 875 529 
Q 447 1150 447 2328 
Q 447 3434 972 4092 
Q 1497 4750 2381 4750 
Q 2619 4750 2861 4703 
Q 3103 4656 3366 4563 
z
" transform="scale(0.015625)"/>
       </defs>
       <use xlink:href="#DejaVuSans-30"/>
       <use xlink:href="#DejaVuSans-2e" x="63.623047"/>
       <use xlink:href="#DejaVuSans-36" x="95.410156"/>
      </g>
     </g>
    </g>
    <g id="xtick_5">
     <g id="line2d_9">
      <path d="M 306.059489 277.111219 
L 306.059489 10.999219 
" clip-path="url(#p0e87d5d694)" style="fill: none; stroke: #b0b0b0; stroke-width: 0.8; stroke-linecap: square"/>
     </g>
     <g id="line2d_10">
      <g>
       <use xlink:href="#m9dae443a4d" x="306.059489" y="277.111219" style="stroke: #000000; stroke-width: 0.8"/>
      </g>
     </g>
     <g id="text_5">
      <!-- 0.8 -->
      <g transform="translate(298.107926 291.709656)scale(0.1 -0.1)">
       <defs>
        <path id="DejaVuSans-38" d="M 2034 2216 
Q 1584 2216 1326 1975 
Q 1069 1734 1069 1313 
Q 1069 891 1326 650 
Q 1584 409 2034 409 
Q 2484 409 2743 651 
Q 3003 894 3003 1313 
Q 3003 1734 2745 1975 
Q 2488 2216 2034 2216 
z
M 1403 2484 
Q 997 2584 770 2862 
Q 544 3141 544 3541 
Q 544 4100 942 4425 
Q 1341 4750 2034 4750 
Q 2731 4750 3128 4425 
Q 3525 4100 3525 3541 
Q 3525 3141 3298 2862 
Q 3072 2584 2669 2484 
Q 3125 2378 3379 2068 
Q 3634 1759 3634 1313 
Q 3634 634 3220 271 
Q 2806 -91 2034 -91 
Q 1263 -91 848 271 
Q 434 634 434 1313 
Q 434 1759 690 2068 
Q 947 2378 1403 2484 
z
M 1172 3481 
Q 1172 3119 1398 2916 
Q 1625 2713 2034 2713 
Q 2441 2713 2670 2916 
Q 2900 3119 2900 3481 
Q 2900 3844 2670 4047 
Q 2441 4250 2034 4250 
Q 1625 4250 1398 4047 
Q 1172 3844 1172 3481 
z
" transform="scale(0.015625)"/>
       </defs>
       <use xlink:href="#DejaVuSans-30"/>
       <use xlink:href="#DejaVuSans-2e" x="63.623047"/>
       <use xlink:href="#DejaVuSans-38" x="95.410156"/>
      </g>
     </g>
    </g>
    <g id="xtick_6">
     <g id="line2d_11">
      <path d="M 370.990398 277.111219 
L 370.990398 10.999219 
" clip-path="url(#p0e87d5d694)" style="fill: none; stroke: #b0b0b0; stroke-width: 0.8; stroke-linecap: square"/>
     </g>
     <g id="line2d_12">
      <g>
       <use xlink:href="#m9dae443a4d" x="370.990398" y="277.111219" style="stroke: #000000; stroke-width: 0.8"/>
      </g>
     </g>
     <g id="text_6">
      <!-- 1.0 -->
      <g transform="translate(363.038835 291.709656)scale(0.1 -0.1)">
       <defs>
        <path id="DejaVuSans-31" d="M 794 531 
L 1825 531 
L 1825 4091 
L 703 3866 
L 703 4441 
L 1819 4666 
L 2450 4666 
L 2450 531 
L 3481 531 
L 3481 0 
L 794 0 
L 794 531 
z
" transform="scale(0.015625)"/>
       </defs>
       <use xlink:href="#DejaVuSans-31"/>
       <use xlink:href="#DejaVuSans-2e" x="63.623047"/>
       <use xlink:href="#DejaVuSans-30" x="95.410156"/>
      </g>
     </g>
    </g>
    <g id="text_7">
     <!-- x(t) -->
     <g transform="translate(199.842031 305.387781)scale(0.1 -0.1)">
      <defs>
       <path id="DejaVuSans-78" d="M 3513 3500 
L 2247 1797 
L 3578 0 
L 2900 0 
L 1881 1375 
L 863 0 
L 184 0 
L 1544 1831 
L 300 3500 
L 978 3500 
L 1906 2253 
L 2834 3500 
L 3513 3500 
z
" transform="scale(0.015625)"/>
       <path id="DejaVuSans-28" d="M 1984 4856 
Q 1566 4138 1362 3434 
Q 1159 2731 1159 2009 
Q 1159 1288 1364 580 
Q 1569 -128 1984 -844 
L 1484 -844 
Q 1016 -109 783 600 
Q 550 1309 550 2009 
Q 550 2706 781 3412 
Q 1013 4119 1484 4856 
L 1984 4856 
z
" transform="scale(0.015625)"/>
       <path id="DejaVuSans-74" d="M 1172 4494 
L 1172 3500 
L 2356 3500 
L 2356 3053 
L 1172 3053 
L 1172 1153 
Q 1172 725 1289 603 
Q 1406 481 1766 481 
L 2356 481 
L 2356 0 
L 1766 0 
Q 1100 0 847 248 
Q 594 497 594 1153 
L 594 3053 
L 172 3053 
L 172 3500 
L 594 3500 
L 594 4494 
L 1172 4494 
z
" transform="scale(0.015625)"/>
       <path id="DejaVuSans-29" d="M 513 4856 
L 1013 4856 
Q 1481 4119 1714 3412 
Q 1947 2706 1947 2009 
Q 1947 1309 1714 600 
Q 1481 -109 1013 -844 
L 513 -844 
Q 928 -128 1133 580 
Q 1338 1288 1338 2009 
Q 1338 2731 1133 3434 
Q 928 4138 513 4856 
z
" transform="scale(0.015625)"/>
      </defs>
      <use xlink:href="#DejaVuSans-78"/>
      <use xlink:href="#DejaVuSans-28" x="59.179688"/>
      <use xlink:href="#DejaVuSans-74" x="98.193359"/>
      <use xlink:href="#DejaVuSans-29" x="137.402344"/>
     </g>
    </g>
   </g>
   <g id="matplotlib.axis_2">
    <g id="ytick_1">
     <g id="line2d_13">
      <path d="M 30.103125 277.111219 
L 387.223125 277.111219 
" clip-path="url(#p0e87d5d694)" style="fill: none; stroke: #b0b0b0; stroke-width: 0.8; stroke-linecap: square"/>
     </g>
     <g id="line2d_14">
      <defs>
       <path id="mbc95448d27" d="M 0 0 
L -3.5 0 
" style="stroke: #000000; stroke-width: 0.8"/>
      </defs>
      <g>
       <use xlink:href="#mbc95448d27" x="30.103125" y="277.111219" style="stroke: #000000; stroke-width: 0.8"/>
      </g>
     </g>
     <g id="text_8">
      <!-- 0.0 -->
      <g transform="translate(7.2 280.910438)scale(0.1 -0.1)">
       <use xlink:href="#DejaVuSans-30"/>
       <use xlink:href="#DejaVuSans-2e" x="63.623047"/>
       <use xlink:href="#DejaVuSans-30" x="95.410156"/>
      </g>
     </g>
    </g>
    <g id="ytick_2">
     <g id="line2d_15">
      <path d="M 30.103125 232.759219 
L 387.223125 232.759219 
" clip-path="url(#p0e87d5d694)" style="fill: none; stroke: #b0b0b0; stroke-width: 0.8; stroke-linecap: square"/>
     </g>
     <g id="line2d_16">
      <g>
       <use xlink:href="#mbc95448d27" x="30.103125" y="232.759219" style="stroke: #000000; stroke-width: 0.8"/>
      </g>
     </g>
     <g id="text_9">
      <!-- 0.2 -->
      <g transform="translate(7.2 236.558437)scale(0.1 -0.1)">
       <use xlink:href="#DejaVuSans-30"/>
       <use xlink:href="#DejaVuSans-2e" x="63.623047"/>
       <use xlink:href="#DejaVuSans-32" x="95.410156"/>
      </g>
     </g>
    </g>
    <g id="ytick_3">
     <g id="line2d_17">
      <path d="M 30.103125 188.407219 
L 387.223125 188.407219 
" clip-path="url(#p0e87d5d694)" style="fill: none; stroke: #b0b0b0; stroke-width: 0.8; stroke-linecap: square"/>
     </g>
     <g id="line2d_18">
      <g>
       <use xlink:href="#mbc95448d27" x="30.103125" y="188.407219" style="stroke: #000000; stroke-width: 0.8"/>
      </g>
     </g>
     <g id="text_10">
      <!-- 0.4 -->
      <g transform="translate(7.2 192.206437)scale(0.1 -0.1)">
       <use xlink:href="#DejaVuSans-30"/>
       <use xlink:href="#DejaVuSans-2e" x="63.623047"/>
       <use xlink:href="#DejaVuSans-34" x="95.410156"/>
      </g>
     </g>
    </g>
    <g id="ytick_4">
     <g id="line2d_19">
      <path d="M 30.103125 144.055219 
L 387.223125 144.055219 
" clip-path="url(#p0e87d5d694)" style="fill: none; stroke: #b0b0b0; stroke-width: 0.8; stroke-linecap: square"/>
     </g>
     <g id="line2d_20">
      <g>
       <use xlink:href="#mbc95448d27" x="30.103125" y="144.055219" style="stroke: #000000; stroke-width: 0.8"/>
      </g>
     </g>
     <g id="text_11">
      <!-- 0.6 -->
      <g transform="translate(7.2 147.854437)scale(0.1 -0.1)">
       <use xlink:href="#DejaVuSans-30"/>
       <use xlink:href="#DejaVuSans-2e" x="63.623047"/>
       <use xlink:href="#DejaVuSans-36" x="95.410156"/>
      </g>
     </g>
    </g>
    <g id="ytick_5">
     <g id="line2d_21">
      <path d="M 30.103125 99.703219 
L 387.223125 99.703219 
" clip-path="url(#p0e87d5d694)" style="fill: none; stroke: #b0b0b0; stroke-width: 0.8; stroke-linecap: square"/>
     </g>
     <g id="line2d_22">
      <g>
       <use xlink:href="#mbc95448d27" x="30.103125" y="99.703219" style="stroke: #000000; stroke-width: 0.8"/>
      </g>
     </g>
     <g id="text_12">
      <!-- 0.8 -->
      <g transform="translate(7.2 103.502437)scale(0.1 -0.1)">
       <use xlink:href="#DejaVuSans-30"/>
       <use xlink:href="#DejaVuSans-2e" x="63.623047"/>
       <use xlink:href="#DejaVuSans-38" x="95.410156"/>
      </g>
     </g>
    </g>
    <g id="ytick_6">
     <g id="line2d_23">
      <path d="M 30.103125 55.351219 
L 387.223125 55.351219 
" clip-path="url(#p0e87d5d694)" style="fill: none; stroke: #b0b0b0; stroke-width: 0.8; stroke-linecap: square"/>
     </g>
     <g id="line2d_24">
      <g>
       <use xlink:href="#mbc95448d27" x="30.103125" y="55.351219" style="stroke: #000000; stroke-width: 0.8"/>
      </g>
     </g>
     <g id="text_13">
      <!-- 1.0 -->
      <g transform="translate(7.2 59.150438)scale(0.1 -0.1)">
       <use xlink:href="#DejaVuSans-31"/>
       <use xlink:href="#DejaVuSans-2e" x="63.623047"/>
       <use xlink:href="#DejaVuSans-30" x="95.410156"/>
      </g>
     </g>
    </g>
    <g id="ytick_7">
     <g id="line2d_25">
      <path d="M 30.103125 10.999219 
L 387.223125 10.999219 
" clip-path="url(#p0e87d5d694)" style="fill: none; stroke: #b0b0b0; stroke-width: 0.8; stroke-linecap: square"/>
     </g>
     <g id="line2d_26">
      <g>
       <use xlink:href="#mbc95448d27" x="30.103125" y="10.999219" style="stroke: #000000; stroke-width: 0.8"/>
      </g>
     </g>
     <g id="text_14">
      <!-- 1.2 -->
      <g transform="translate(7.2 14.798437)scale(0.1 -0.1)">
       <use xlink:href="#DejaVuSans-31"/>
       <use xlink:href="#DejaVuSans-2e" x="63.623047"/>
       <use xlink:href="#DejaVuSans-32" x="95.410156"/>
      </g>
     </g>
    </g>
   </g>
   <g id="line2d_27">
    <path d="M 281.406806 -1 
L 281.655925 4.14604 
L 283.834815 44.235487 
L 286.013705 79.771603 
L 288.192594 111.107171 
L 290.371484 138.581403 
L 292.550373 162.519868 
L 294.729263 183.234423 
L 296.908152 201.023143 
L 299.087042 216.170248 
L 301.265932 228.946039 
L 303.444821 239.606819 
L 305.623711 248.394832 
L 307.8026 255.538186 
L 309.98149 261.250785 
L 312.160379 265.732259 
L 314.339269 269.167895 
L 316.518159 271.728565 
L 318.697048 273.570655 
L 320.875938 274.835998 
L 323.054827 275.6518 
L 325.233717 276.130574 
L 327.412606 276.370064 
L 331.770386 276.447932 
L 340.485944 276.377688 
L 347.022612 276.486518 
L 349.201502 276.410583 
L 351.380392 276.175961 
L 353.559281 275.697737 
L 355.738171 274.875314 
L 357.91706 273.592348 
L 360.09595 271.716675 
L 362.274839 269.100244 
L 364.453729 265.579042 
L 366.632619 260.973031 
L 368.811508 255.086067 
L 370.990398 247.705843 
L 370.990398 247.705843 
" clip-path="url(#p0e87d5d694)" style="fill: none; stroke: #0000ff; stroke-width: 1.5; stroke-linecap: square"/>
   </g>
   <g id="line2d_28">
    <path d="M 46.335852 268.859529 
L 48.514742 269.883288 
L 52.872521 271.551172 
L 57.2303 272.782802 
L 61.588079 273.656312 
L 65.945858 274.243211 
L 70.303638 274.608359 
L 76.840306 274.865746 
L 85.555864 274.919631 
L 98.629202 274.956907 
L 107.34476 275.19803 
L 116.060318 275.664601 
L 137.849214 277.022822 
L 142.206993 277.066649 
L 146.564772 276.921565 
L 150.922551 276.524986 
L 155.280331 275.807197 
L 159.63811 274.691331 
L 161.816999 273.958136 
L 163.995889 273.093342 
L 166.174778 272.085319 
L 168.353668 270.921983 
L 170.532558 269.590798 
L 172.711447 268.078778 
L 174.890337 266.372477 
L 177.069226 264.458 
L 179.248116 262.320994 
L 181.427005 259.946648 
L 183.605895 257.319697 
L 185.784785 254.424416 
L 187.963674 251.244623 
L 190.142564 247.763675 
L 192.321453 243.96447 
L 194.500343 239.829445 
L 196.679232 235.340575 
L 198.858122 230.479372 
L 201.037012 225.226886 
L 203.215901 219.563703 
L 205.394791 213.469941 
L 207.57368 206.925258 
L 209.75257 199.908841 
L 211.931459 192.399413 
L 214.110349 184.375226 
L 216.289238 175.814067 
L 218.468128 166.693252 
L 220.647018 156.989625 
L 222.825907 146.679562 
L 225.004797 135.738965 
L 227.183686 124.143267 
L 229.362576 111.867423 
L 231.541465 98.885918 
L 233.720355 85.17276 
L 235.899245 70.701482 
L 238.078134 55.445142 
L 240.257024 39.376319 
L 244.614803 4.689153 
L 245.278559 -1 
L 245.278559 -1 
" clip-path="url(#p0e87d5d694)" style="fill: none; stroke: #bf00bf; stroke-width: 1.5; stroke-linecap: square"/>
   </g>
   <g id="line2d_29">
    <path d="M 30.103125 277.111219 
L 387.223125 277.111219 
" clip-path="url(#p0e87d5d694)" style="fill: none; stroke: #000000; stroke-width: 1.5; stroke-linecap: square"/>
   </g>
   <g id="line2d_30">
    <path d="M 46.335852 277.111219 
L 46.335852 10.999219 
" clip-path="url(#p0e87d5d694)" style="fill: none; stroke: #000000; stroke-width: 1.5; stroke-linecap: square"/>
   </g>
   <g id="line2d_31">
    <path d="M 30.103125 55.351219 
L 387.223125 55.351219 
" clip-path="url(#p0e87d5d694)" style="fill: none; stroke-dasharray: 5.55,2.4; stroke-dashoffset: 0; stroke: #ff0000; stroke-width: 1.5"/>
   </g>
   <g id="line2d_32">
    <path d="M 30.103125 274.893619 
L 387.223125 274.893619 
" clip-path="url(#p0e87d5d694)" style="fill: none; stroke-dasharray: 5.55,2.4; stroke-dashoffset: 0; stroke: #008000; stroke-width: 1.5"/>
   </g>
   <g id="patch_3">
    <path d="M 30.103125 277.111219 
L 30.103125 10.999219 
" style="fill: none; stroke: #000000; stroke-width: 0.8; stroke-linejoin: miter; stroke-linecap: square"/>
   </g>
   <g id="patch_4">
    <path d="M 387.223125 277.111219 
L 387.223125 10.999219 
" style="fill: none; stroke: #000000; stroke-width: 0.8; stroke-linejoin: miter; stroke-linecap: square"/>
   </g>
   <g id="patch_5">
    <path d="M 30.103125 277.111219 
L 387.223125 277.111219 
" style="fill: none; stroke: #000000; stroke-width: 0.8; stroke-linejoin: miter; stroke-linecap: square"/>
   </g>
   <g id="patch_6">
    <path d="M 30.103125 10.999219 
L 387.223125 10.999219 
" style="fill: none; stroke: #000000; stroke-width: 0.8; stroke-linejoin: miter; stroke-linecap: square"/>
   </g>
   <g id="legend_1">
    <g id="patch_7">
     <path d="M 37.103125 77.711719 
L 103.770313 77.711719 
Q 105.770313 77.711719 105.770313 75.711719 
L 105.770313 17.999219 
Q 105.770313 15.999219 103.770313 15.999219 
L 37.103125 15.999219 
Q 35.103125 15.999219 35.103125 17.999219 
L 35.103125 75.711719 
Q 35.103125 77.711719 37.103125 77.711719 
z
" style="fill: #ffffff; opacity: 0.8; stroke: #cccccc; stroke-linejoin: miter"/>
    </g>
    <g id="line2d_33">
     <path d="M 39.103125 24.097656 
L 49.103125 24.097656 
L 59.103125 24.097656 
" style="fill: none; stroke: #0000ff; stroke-width: 1.5; stroke-linecap: square"/>
    </g>
    <g id="text_15">
     <!-- B0 -->
     <g transform="translate(67.103125 27.597656)scale(0.1 -0.1)">
      <defs>
       <path id="DejaVuSans-42" d="M 1259 2228 
L 1259 519 
L 2272 519 
Q 2781 519 3026 730 
Q 3272 941 3272 1375 
Q 3272 1813 3026 2020 
Q 2781 2228 2272 2228 
L 1259 2228 
z
M 1259 4147 
L 1259 2741 
L 2194 2741 
Q 2656 2741 2882 2914 
Q 3109 3088 3109 3444 
Q 3109 3797 2882 3972 
Q 2656 4147 2194 4147 
L 1259 4147 
z
M 628 4666 
L 2241 4666 
Q 2963 4666 3353 4366 
Q 3744 4066 3744 3513 
Q 3744 3084 3544 2831 
Q 3344 2578 2956 2516 
Q 3422 2416 3680 2098 
Q 3938 1781 3938 1306 
Q 3938 681 3513 340 
Q 3088 0 2303 0 
L 628 0 
L 628 4666 
z
" transform="scale(0.015625)"/>
      </defs>
      <use xlink:href="#DejaVuSans-42"/>
      <use xlink:href="#DejaVuSans-30" x="68.603516"/>
     </g>
    </g>
    <g id="line2d_34">
     <path d="M 39.103125 38.775781 
L 49.103125 38.775781 
L 59.103125 38.775781 
" style="fill: none; stroke: #bf00bf; stroke-width: 1.5; stroke-linecap: square"/>
    </g>
    <g id="text_16">
     <!-- B1 -->
     <g transform="translate(67.103125 42.275781)scale(0.1 -0.1)">
      <use xlink:href="#DejaVuSans-42"/>
      <use xlink:href="#DejaVuSans-31" x="68.603516"/>
     </g>
    </g>
    <g id="patch_8">
     <path d="M 39.103125 56.953906 
L 59.103125 56.953906 
L 59.103125 49.953906 
L 39.103125 49.953906 
z
" style="fill: #008000; fill-opacity: 0.3"/>
    </g>
    <g id="text_17">
     <!-- Initial -->
     <g transform="translate(67.103125 56.953906)scale(0.1 -0.1)">
      <defs>
       <path id="DejaVuSans-49" d="M 628 4666 
L 1259 4666 
L 1259 0 
L 628 0 
L 628 4666 
z
" transform="scale(0.015625)"/>
       <path id="DejaVuSans-6e" d="M 3513 2113 
L 3513 0 
L 2938 0 
L 2938 2094 
Q 2938 2591 2744 2837 
Q 2550 3084 2163 3084 
Q 1697 3084 1428 2787 
Q 1159 2491 1159 1978 
L 1159 0 
L 581 0 
L 581 3500 
L 1159 3500 
L 1159 2956 
Q 1366 3272 1645 3428 
Q 1925 3584 2291 3584 
Q 2894 3584 3203 3211 
Q 3513 2838 3513 2113 
z
" transform="scale(0.015625)"/>
       <path id="DejaVuSans-69" d="M 603 3500 
L 1178 3500 
L 1178 0 
L 603 0 
L 603 3500 
z
M 603 4863 
L 1178 4863 
L 1178 4134 
L 603 4134 
L 603 4863 
z
" transform="scale(0.015625)"/>
       <path id="DejaVuSans-61" d="M 2194 1759 
Q 1497 1759 1228 1600 
Q 959 1441 959 1056 
Q 959 750 1161 570 
Q 1363 391 1709 391 
Q 2188 391 2477 730 
Q 2766 1069 2766 1631 
L 2766 1759 
L 2194 1759 
z
M 3341 1997 
L 3341 0 
L 2766 0 
L 2766 531 
Q 2569 213 2275 61 
Q 1981 -91 1556 -91 
Q 1019 -91 701 211 
Q 384 513 384 1019 
Q 384 1609 779 1909 
Q 1175 2209 1959 2209 
L 2766 2209 
L 2766 2266 
Q 2766 2663 2505 2880 
Q 2244 3097 1772 3097 
Q 1472 3097 1187 3025 
Q 903 2953 641 2809 
L 641 3341 
Q 956 3463 1253 3523 
Q 1550 3584 1831 3584 
Q 2591 3584 2966 3190 
Q 3341 2797 3341 1997 
z
" transform="scale(0.015625)"/>
       <path id="DejaVuSans-6c" d="M 603 4863 
L 1178 4863 
L 1178 0 
L 603 0 
L 603 4863 
z
" transform="scale(0.015625)"/>
      </defs>
      <use xlink:href="#DejaVuSans-49"/>
      <use xlink:href="#DejaVuSans-6e" x="29.492188"/>
      <use xlink:href="#DejaVuSans-69" x="92.871094"/>
      <use xlink:href="#DejaVuSans-74" x="120.654297"/>
      <use xlink:href="#DejaVuSans-69" x="159.863281"/>
      <use xlink:href="#DejaVuSans-61" x="187.646484"/>
      <use xlink:href="#DejaVuSans-6c" x="248.925781"/>
     </g>
    </g>
    <g id="patch_9">
     <path d="M 39.103125 71.632031 
L 59.103125 71.632031 
L 59.103125 64.632031 
L 39.103125 64.632031 
z
" style="fill: #ff0000; fill-opacity: 0.3"/>
    </g>
    <g id="text_18">
     <!-- Unsafe -->
     <g transform="translate(67.103125 71.632031)scale(0.1 -0.1)">
      <defs>
       <path id="DejaVuSans-55" d="M 556 4666 
L 1191 4666 
L 1191 1831 
Q 1191 1081 1462 751 
Q 1734 422 2344 422 
Q 2950 422 3222 751 
Q 3494 1081 3494 1831 
L 3494 4666 
L 4128 4666 
L 4128 1753 
Q 4128 841 3676 375 
Q 3225 -91 2344 -91 
Q 1459 -91 1007 375 
Q 556 841 556 1753 
L 556 4666 
z
" transform="scale(0.015625)"/>
       <path id="DejaVuSans-73" d="M 2834 3397 
L 2834 2853 
Q 2591 2978 2328 3040 
Q 2066 3103 1784 3103 
Q 1356 3103 1142 2972 
Q 928 2841 928 2578 
Q 928 2378 1081 2264 
Q 1234 2150 1697 2047 
L 1894 2003 
Q 2506 1872 2764 1633 
Q 3022 1394 3022 966 
Q 3022 478 2636 193 
Q 2250 -91 1575 -91 
Q 1294 -91 989 -36 
Q 684 19 347 128 
L 347 722 
Q 666 556 975 473 
Q 1284 391 1588 391 
Q 1994 391 2212 530 
Q 2431 669 2431 922 
Q 2431 1156 2273 1281 
Q 2116 1406 1581 1522 
L 1381 1569 
Q 847 1681 609 1914 
Q 372 2147 372 2553 
Q 372 3047 722 3315 
Q 1072 3584 1716 3584 
Q 2034 3584 2315 3537 
Q 2597 3491 2834 3397 
z
" transform="scale(0.015625)"/>
       <path id="DejaVuSans-66" d="M 2375 4863 
L 2375 4384 
L 1825 4384 
Q 1516 4384 1395 4259 
Q 1275 4134 1275 3809 
L 1275 3500 
L 2222 3500 
L 2222 3053 
L 1275 3053 
L 1275 0 
L 697 0 
L 697 3053 
L 147 3053 
L 147 3500 
L 697 3500 
L 697 3744 
Q 697 4328 969 4595 
Q 1241 4863 1831 4863 
L 2375 4863 
z
" transform="scale(0.015625)"/>
       <path id="DejaVuSans-65" d="M 3597 1894 
L 3597 1613 
L 953 1613 
Q 991 1019 1311 708 
Q 1631 397 2203 397 
Q 2534 397 2845 478 
Q 3156 559 3463 722 
L 3463 178 
Q 3153 47 2828 -22 
Q 2503 -91 2169 -91 
Q 1331 -91 842 396 
Q 353 884 353 1716 
Q 353 2575 817 3079 
Q 1281 3584 2069 3584 
Q 2775 3584 3186 3129 
Q 3597 2675 3597 1894 
z
M 3022 2063 
Q 3016 2534 2758 2815 
Q 2500 3097 2075 3097 
Q 1594 3097 1305 2825 
Q 1016 2553 972 2059 
L 3022 2063 
z
" transform="scale(0.015625)"/>
      </defs>
      <use xlink:href="#DejaVuSans-55"/>
      <use xlink:href="#DejaVuSans-6e" x="73.193359"/>
      <use xlink:href="#DejaVuSans-73" x="136.572266"/>
      <use xlink:href="#DejaVuSans-61" x="188.671875"/>
      <use xlink:href="#DejaVuSans-66" x="249.951172"/>
      <use xlink:href="#DejaVuSans-65" x="285.15625"/>
     </g>
    </g>
   </g>
  </g>
 </g>
 <defs>
  <clipPath id="p0e87d5d694">
   <rect x="30.103125" y="10.999219" width="357.12" height="266.112"/>
  </clipPath>
 </defs>
</svg>
